<?xml version="1.0" standalone="no"?>
<!DOCTYPE svg PUBLIC "-//W3C//DTD SVG 1.1//EN" "http://www.w3.org/Graphics/SVG/1.1/DTD/svg11.dtd" >
<svg xmlns="http://www.w3.org/2000/svg" xmlns:xlink="http://www.w3.org/1999/xlink" version="1.1">
<metadata>
Created by FontForge 20170731 at Sun Sep 15 23:31:46 2019
 By Aleksey,,,
Copyright (c) 2019 by Khurasan. All rights reserved.
</metadata>
<defs>
<font id="HeyComic" horiz-adv-x="611" >
  <font-face 
    font-family="Hey Comic"
    font-weight="400"
    font-stretch="normal"
    units-per-em="1000"
    panose-1="0 0 0 0 0 0 0 0 0 0"
    ascent="800"
    descent="-200"
    x-height="544"
    cap-height="749.5"
    bbox="-26.6129 -269 871.6 1002"
    underline-thickness="50"
    underline-position="-150"
    unicode-range="U+000D-0178"
  />
<missing-glyph horiz-adv-x="349" 
 />
    <glyph glyph-name=".notdef" horiz-adv-x="349" 
 />
    <glyph glyph-name=".null" horiz-adv-x="0" 
 />
    <glyph glyph-name="nonmarkingreturn" unicode="&#xd;" horiz-adv-x="349" 
 />
    <glyph glyph-name="NULL" horiz-adv-x="0" 
 />
    <glyph glyph-name="NULL" horiz-adv-x="0" 
 />
    <glyph glyph-name="space" unicode=" " horiz-adv-x="349" 
 />
    <glyph glyph-name="exclam" unicode="!" horiz-adv-x="236" 
d="M38 214q5 123 4.5 245t-5.5 246q1 9 7 18q5 7 15 14t28 9q17 3 35 4t34 -2t27 -11.5t15 -25.5q2 -8 3 -34t1 -63q0 -106 -5.5 -205.5t-17.5 -196.5q1 -7 -3 -11q-3 -5 -9.5 -8t-20.5 -3t-32.5 0.5t-35 3t-28.5 7t-12 13.5zM189 66q0 -29 -24 -50t-59 -21q-34 0 -58 21
t-24 50q0 31 24 52t58 21q35 0 59 -21t24 -52z" />
    <glyph glyph-name="quotedbl" unicode="&#x22;" horiz-adv-x="359" 
d="M201 716q1 16 6.5 24.5t31.5 8.5h28t29.5 -3t21 -12t2.5 -28q-3 -14 -8 -32.5t-10.5 -38.5t-11.5 -39t-12 -34q-5 -11 -10.5 -21.5t-22.5 -10.5q-8 0 -16.5 1t-11.5 1q-12 1 -20 7.5t-6 32.5zM38 716q1 16 6.5 24.5t31.5 8.5h28t29.5 -3t21 -12t2.5 -28q-3 -14 -8 -32.5
t-10.5 -38.5t-11.5 -39t-12 -34q-5 -11 -10.5 -21.5t-22.5 -10.5q-8 0 -16.5 1t-11.5 1q-12 1 -20 7.5t-6 32.5z" />
    <glyph glyph-name="numbersign" unicode="#" horiz-adv-x="739" 
d="M640 266q10 -2 19 -6q8 -4 14 -11t8 -21q1 -13 1.5 -27t-3.5 -26t-14.5 -20.5t-29.5 -10.5q-8 -1 -34.5 -0.5t-62.5 0.5q-9 -33 -18 -65.5t-18 -65.5q-3 -9 -10 -14q-6 -5 -17.5 -8t-28.5 0q-17 2 -35.5 6t-33 11t-23 18t-6.5 29q1 8 6 32t16 57h-39q-17 0 -32 -0.5
t-30 -0.5l-38 -132q-4 -9 -12 -15q-7 -5 -18 -8t-28 1q-17 3 -35 7.5t-32.5 12t-23 19.5t-6.5 29q1 8 7 29t15 52q-8 -1 -14.5 -1.5t-11.5 -0.5q-5 -1 -9 -1q-8 -1 -14 1q-5 2 -9.5 6.5t-6.5 15.5q-1 10 -2.5 23.5t-1 26t5 22t15.5 10.5q20 3 42 4.5t44 2.5q5 14 10 29
l10 30q-15 -1 -27.5 -1.5t-20.5 -0.5q-10 -1 -17 -1q-7 -1 -13 1q-5 2 -9.5 6.5t-5.5 15.5q-2 10 -3 24t0 26.5t5.5 22t14.5 10.5l113 8q10 27 18 50t14 40q7 20 13 37q1 6 6 10q9 9 34 4q13 -4 30.5 -8.5t33 -10.5t25.5 -14t8 -17l-23 -81l119 7q9 25 17 46t14 36
q7 18 13 31q2 6 7 10q5 3 12 5t21 -2q13 -5 30.5 -10.5t32.5 -12.5t25 -15t7 -17l-21 -60l17 1q9 0 18 -4q7 -3 14 -10t9 -20t3.5 -27t-1 -26t-11.5 -21t-28 -12q-13 -3 -61 -6q-4 -14 -8 -27t-8 -27h67zM303 259q26 1 52.5 2t52.5 2q5 12 9 24.5t9 25.5q-26 -1 -54 -1.5
t-54 -1.5z" />
    <glyph glyph-name="dollar" unicode="$" horiz-adv-x="486" 
d="M325 401q0 25 -12.5 40.5t-30 23t-37 8t-32.5 -4.5q-17 -6 -22 -15t-2 -18.5t11 -18t18 -13.5q12 -6 27 -12.5t29 -11.5t25 -9.5t17 -7.5q40 -18 70.5 -45.5t47.5 -63.5q16 -35 16.5 -69t-11 -64.5t-33.5 -56t-50 -43.5q-21 -14 -43 -21.5t-45 -10.5l-6 -77q-1 -3 -4 -5
t-8 -3t-14 -1q-17 1 -35 3t-21 12q-1 5 2 27.5t7 47.5q-32 8 -62 24t-54 41q-18 18 -28.5 40.5t-12.5 46t4 46.5t23 41q3 5 8 8q14 12 29.5 9t22.5 -25q15 -42 45.5 -69t73.5 -29q14 -1 27 3.5t22 13t12.5 21.5t-2.5 30q-6 18 -26.5 31t-45.5 22.5t-50 17.5t-40 15
q-38 18 -67.5 44.5t-37.5 70.5q-6 35 4.5 70.5t35.5 61.5q28 29 65.5 43t72.5 19l-3 85q0 2 3 5q5 5 21 8q17 2 35 2.5t22 -10.5q1 -3 1 -11v-20t-0.5 -26.5t-1.5 -28.5v-4q32 -4 61 -16t50.5 -31t34 -44.5t11.5 -57.5q0 -14 -8 -25.5t-21 -20t-29 -12.5t-34 -4q-11 0 -18 5
t-7 19z" />
    <glyph glyph-name="percent" unicode="%" horiz-adv-x="597" 
d="M503 662q-85 -155 -161.5 -312.5t-144.5 -320.5q-1 -3 -4 -7q-5 -6 -12 -12q-8 -7 -20 -10.5t-29 0.5q-17 5 -34.5 11.5t-30.5 17t-18.5 26t0.5 39.5q4 12 18 46t37 82q22 47 50 103t58 113q23 44 43.5 80.5t40 70.5t39 67t41.5 71q5 9 11 13q5 4 13.5 5t21.5 -5
q12 -6 28.5 -14.5t30 -19t21 -21.5t1.5 -23zM144 747q22 0 41.5 -8.5t34.5 -23t23.5 -34.5t8.5 -42t-8.5 -41.5t-23.5 -34t-34.5 -23t-41.5 -8.5t-41.5 8.5t-34 23t-23 34t-8.5 41.5t8.5 42t23 34.5t34 23t41.5 8.5zM165 639q0 10 -6 15.5t-15 5.5q-20 0 -20 -21
q0 -19 20 -19q9 0 15 5.5t6 13.5zM452 214q22 0 42 -8.5t34.5 -23t23 -34.5t8.5 -42t-8.5 -41.5t-23 -34.5t-34.5 -23.5t-42 -8.5t-41.5 8.5t-34.5 23.5t-23.5 34.5t-8.5 41.5t8.5 42t23.5 34.5t34.5 23t41.5 8.5zM473 106q0 9 -6 15t-15 6q-8 0 -14.5 -6t-6.5 -15
q0 -8 6.5 -14.5t14.5 -6.5q9 0 15 6.5t6 14.5z" />
    <glyph glyph-name="ampersand" unicode="&#x26;" horiz-adv-x="662" 
d="M598 427q7 0 11 -5.5t6.5 -13t2.5 -15v-12.5q-1 -16 -2.5 -32.5t-5 -31t-9 -24t-14.5 -11.5h-9q16 -52 4.5 -103.5t-45 -92t-86 -66t-119.5 -26.5q-52 -1 -102.5 14.5t-92 45.5t-69 73.5t-33.5 99.5q-4 44 8 87.5t36 82.5t59 71t77 53q-3 16 -17.5 32.5t-31.5 32
t-30.5 30t-14.5 28.5q-1 12 -1.5 29.5t0.5 33.5t4 27t9 9q210 8 421 6q8 -2 14 -7q5 -5 9.5 -13.5t5.5 -23.5q1 -16 1.5 -33t-2.5 -31.5t-10 -25t-21 -12.5q-7 -1 -28 -1t-51 1t-66 2t-73 3h-1q19 -18 38.5 -36.5t39.5 -35.5l1 -2q2 -4 2 -8q0 -3 -1.5 -11.5t-3 -19t-4 -21
t-4.5 -19.5q-3 -9 -6 -12.5t-8 -4.5t-11.5 0t-15.5 0q-23 -2 -47 -10t-42 -19q-51 -31 -74.5 -78.5t-18 -92t42 -74t105.5 -24.5q33 3 61 19t41 45q8 17 5.5 36t-18.5 38v1q-26 -4 -53.5 -8.5t-49.5 -11.5q-9 1 -20.5 18.5t-20.5 39t-13 40t3 20.5q81 31 166.5 43.5
t171.5 6.5z" />
    <glyph glyph-name="quotesingle" unicode="'" horiz-adv-x="199" 
d="M41 716q1 16 6.5 24.5t31.5 8.5h28t29.5 -3t21 -12t2.5 -28q-3 -14 -8 -32.5t-10.5 -38.5t-11.5 -39t-12 -34q-5 -11 -10.5 -21.5t-22.5 -10.5q-8 0 -16.5 1t-11.5 1q-12 1 -20 7.5t-6 32.5z" />
    <glyph glyph-name="parenleft" unicode="(" horiz-adv-x="401" 
d="M359 637q-42 -24 -76.5 -61t-56.5 -82.5t-30.5 -95.5t2.5 -100t43.5 -96t90.5 -83q5 -3 9.5 -6t9.5 -6q8 -5 9.5 -12.5t-0.5 -16.5q-2 -21 -14.5 -47t-26.5 -45q-12 -16 -33 -14t-42 13q-49 28 -89.5 67t-69 88.5t-42.5 109t-10 128.5q4 62 23.5 118t50.5 104t72 88.5
t88 70.5q13 8 25.5 6.5t20.5 -11.5q9 -11 22 -28t22 -34.5t11.5 -32.5t-9.5 -22z" />
    <glyph glyph-name="parenright" unicode=")" horiz-adv-x="401" 
d="M52 637q-11 7 -8 22t12.5 32.5t23 34.5t23.5 28q8 10 20.5 11.5t25.5 -6.5q46 -30 85 -70.5t68.5 -88.5t46.5 -104t18 -118q1 -69 -15.5 -128.5t-47 -109t-72.5 -88.5t-93 -67q-21 -11 -42 -13t-33 14q-13 19 -24 45t-13 47q-1 9 1 16.5t10 12.5q5 3 9.5 6t9.5 6
q60 37 94 83t47 96t7 100t-26.5 95.5t-53 82.5t-73.5 61z" />
    <glyph glyph-name="plus" unicode="+" horiz-adv-x="506" 
d="M460 348q1 -18 2 -37t-1.5 -35t-8.5 -27.5t-19 -14.5q-7 -2 -33.5 -2t-63.5 2q1 -26 1.5 -52.5t1.5 -53.5q-2 -8 -7 -13t-14.5 -9t-27.5 -6q-17 -2 -35.5 -3.5t-34.5 0t-28 7.5t-15 19q-2 9 -2.5 42t1.5 78q-24 2 -45 3t-36 2q-18 1 -33 2q-5 -1 -9 3q-3 3 -6 9.5
t-3 20.5q-1 14 -1.5 32.5t0 35t3.5 28.5t10 13l129 2q2 23 4 42t4 33q2 17 3 31q-1 4 3 8q3 3 10 6t21 3t32.5 -0.5t35 -2t28.5 -5t12 -10.5q-1 -26 -1.5 -52t-0.5 -52l96 1q7 -2 13 -7q5 -5 9 -14.5t6 -26.5z" />
    <glyph glyph-name="comma" unicode="," horiz-adv-x="220" 
d="M62 156q2 9 7 16q5 6 13 10.5t22 4.5q19 -1 34.5 -2.5t26.5 -5.5q17 -5 19 -15t-3 -27q-4 -12 -10 -28t-13 -32.5t-14 -32t-13 -25.5q-5 -9 -11 -18t-14 -16t-18 -10.5t-24 -0.5q-21 6 -28.5 9.5t-6.5 10.5z" />
    <glyph glyph-name="hyphen" unicode="-" horiz-adv-x="443" 
d="M43 371q171 5 343 0q6 -1 11 -6t8 -13.5t4 -24.5q1 -15 1 -31.5t-3 -30.5t-9 -23.5t-17 -12.5q-6 -1 -23 -0.5t-41 2t-53 3.5t-59 4q-29 2 -56.5 3.5t-49.5 3.5q-26 1 -48 2q-4 -1 -8 2q-3 2 -5.5 8.5t-3.5 18.5t-2 28t-1 31t3 25.5t9 10.5z" />
    <glyph glyph-name="period" unicode="." horiz-adv-x="214" 
d="M178 58q0 -26 -21.5 -44.5t-51.5 -18.5t-51.5 18.5t-21.5 44.5q0 27 21.5 46t51.5 19t51.5 -19t21.5 -46z" />
    <glyph glyph-name="slash" unicode="/" horiz-adv-x="461" 
d="M184 26q-6 -12 -15 -20q-8 -7 -20 -11t-29 1q-17 4 -34.5 10.5t-31 16t-20 24.5t-0.5 38q3 12 15.5 45.5t31 81t42 104.5t47.5 114q56 135 126 299q3 9 8 14t13 7.5t22 -2.5q13 -4 30.5 -10t32.5 -14t24 -18t5 -22z" />
    <glyph glyph-name="one" unicode="1" horiz-adv-x="341" 
d="M316 652q-24 -304 -21 -611q-1 -11 -6 -20q-5 -8 -15 -15.5t-27 -9.5q-18 -2 -36.5 -2.5t-34.5 3.5t-27.5 14t-14.5 31q-2 11 -2.5 43t1.5 77q2 46 5 100.5t6 109.5q1 2 1 6q-6 1 -14.5 4t-22.5 12q-15 10 -30.5 20.5t-28 21.5t-19.5 21t-4 19t27 40q11 14 24 32t27 37
q14 18 25.5 35t21.5 31q11 16 21 31q4 8 26.5 9.5t48 -3t46.5 -14t23 -22.5z" />
    <glyph glyph-name="two" unicode="2" horiz-adv-x="500" 
d="M446 153q7 0 11 -6.5t6.5 -15t3 -17.5t0.5 -13q0 -18 -1 -37.5t-4 -36t-9 -28t-17 -13.5q-5 -2 -21.5 -1t-39.5 3q-24 2 -51.5 3.5t-56.5 2.5t-56 1t-48 -1q-18 -2 -44.5 -2t-45.5 3q-15 3 -23 23.5t-9.5 48.5t4.5 58.5t18 53.5q19 33 43 59.5t50 51t53 49.5t53 54
q11 12 25 35t21 46q9 30 -1 46t-28.5 19.5t-40.5 -5t-38 -27.5q-14 -18 -20.5 -42t2.5 -49q2 -5 4.5 -11.5t3.5 -12.5q1 -14 -18.5 -28.5t-45.5 -21t-51 -1t-35 31.5q-11 36 -9.5 71.5t12 69t30 63.5t45.5 53q28 25 64.5 40t75.5 18t76.5 -7t67.5 -36q24 -20 38 -45.5
t20 -54t4.5 -58.5t-8.5 -60q-11 -44 -33.5 -80t-50.5 -68.5t-59.5 -63t-61.5 -62.5q97 4 195 0z" />
    <glyph glyph-name="three" unicode="3" horiz-adv-x="460" 
d="M375 379q29 -35 45.5 -84.5t11.5 -97.5q-4 -37 -22 -73.5t-46 -65t-64.5 -46t-78.5 -17.5q-26 0 -53 5.5t-52.5 15.5t-47.5 26t-36 37q-15 21 -9 46q6 28 23.5 48.5t32.5 33.5q8 6 20 8t23 -10q18 -21 39 -33.5t41.5 -14t39 9t31.5 34.5q7 14 8 30t-6 29.5t-23 23
t-42 11.5q-2 -1 -3 -0.5t-2 0.5h-2q-1 -1 -2 -1h-4q-3 1 -6.5 1.5t-5.5 2.5q-11 3 -15 18t-4.5 33t1.5 35.5t5 25.5q4 11 10 18.5t14 7.5q25 0 44 16t27 36t2.5 37.5t-30.5 19.5q-17 2 -36.5 -10.5t-32.5 -38.5q-5 -10 -8 -19.5t-15 -14.5q-10 -4 -19 -4q-29 0 -55.5 17
t-35.5 48q-4 19 1 37t15 35q17 28 43 49t57.5 33.5t67 15.5t71.5 -6q45 -11 74 -41.5t40.5 -72.5t4 -92t-35.5 -102z" />
    <glyph glyph-name="four" unicode="4" horiz-adv-x="534" 
d="M498 41q-2 -11 -7 -21q-5 -8 -15 -15t-27 -9t-35.5 -2.5t-34.5 3.5t-28 14.5t-15 31.5q-2 11 -2 45t1 84q-69 0 -138.5 2.5t-141.5 4.5q-3 -1 -7 2q-3 2 -6 9t-5 21q-1 7 -3 22.5t-3.5 33t-1.5 33t5 23.5q4 7 20 24.5t39 43.5q58 63 114 129t111 141q10 14 18.5 21.5
t30.5 9.5q21 2 52.5 4.5t53.5 -3.5q5 -3 9.5 -7.5t5.5 -11.5q4 -25 4.5 -47t1.5 -42zM255 333q21 1 42 1.5t42 0.5q0 27 1 54t3 56q-21 -29 -43 -56.5t-45 -55.5z" />
    <glyph glyph-name="five" unicode="5" horiz-adv-x="491" 
d="M412 395q31 -42 42 -92t2.5 -99.5t-34 -95t-67.5 -76.5q-57 -42 -116 -46.5t-112 24.5q-35 18 -60 46t-27 70q-1 23 9.5 44t27.5 33t37 11.5t39 -20.5q14 -18 36 -31.5t48 -8.5q50 8 67 69q4 17 3 35.5t-7.5 34.5t-19.5 28.5t-34 17.5q-29 8 -62 5.5t-58 -10.5
q-9 -2 -28.5 -1t-30.5 1q-12 1 -20.5 12t-13 26t-5.5 30t3 26q3 10 4.5 38.5t2.5 64t1.5 71.5t1.5 60q1 19 5.5 26t13.5 8t22 -1.5t30 -3.5q69 -5 138.5 -7t142.5 2q12 1 21.5 0t13.5 -3q5 -3 9.5 -9.5t6.5 -20.5q2 -18 1.5 -39t-4.5 -39.5t-12 -32.5t-20 -17
q-6 -2 -25 -2.5t-46 0.5q-96 3 -192 18v-61q84 14 153.5 -8t112.5 -77z" />
    <glyph glyph-name="six" unicode="6" horiz-adv-x="555" 
d="M239 463q64 9 117.5 -2t91.5 -40t58 -74t18 -103q-2 -43 -15.5 -83.5t-38.5 -73.5t-60.5 -57t-80.5 -34q-17 -3 -33 -4.5t-33 0.5q-45 3 -86 21t-73 48t-53 70.5t-25 88.5q-5 54 6.5 111.5t34 112.5t53.5 104.5t65 86.5q14 16 29.5 29.5t31.5 22.5q8 5 18 3.5t17 -8.5
q11 -9 23 -22.5t20 -29.5q4 -7 6.5 -14.5t1.5 -15.5q0 -17 -14 -31q-46 -47 -79 -106zM309 321q-32 8 -57.5 0t-42 -24.5t-23.5 -39.5t-2 -44.5t23.5 -39t51.5 -24.5q20 -3 39 1.5t34 19.5q17 17 23 40.5t3 46t-15.5 40.5t-33.5 24z" />
    <glyph glyph-name="seven" unicode="7" horiz-adv-x="493" 
d="M463 634q1 -13 2 -30.5t0.5 -34t-3 -29t-8.5 -14.5q0 -2 -2 -6q-74 -116 -126.5 -243.5t-82.5 -262.5v-1q0 -2 -2 -4t-3.5 -5t-5.5 -7q-5 -5 -16 -9.5t-29 -2.5t-36 5t-33 9.5t-24 19t-8 32.5q1 11 8 41t21 72q14 43 33 92t42 97q23 49 47.5 92.5t45.5 75.5v2
q-119 0 -234 3q-7 1 -13 7q-5 5 -9.5 15t-5.5 27q-1 18 -0.5 36.5t3.5 34.5t10 27t20 14q6 1 26 0.5t48.5 -2t63 -4t69.5 -4.5t67.5 -3.5t58.5 -3.5q30 -2 56 -3q5 1 9 -3q4 -3 7 -9.5t4 -20.5z" />
    <glyph glyph-name="eight" unicode="8" horiz-adv-x="532" 
d="M422 378q45 -33 64 -75.5t16.5 -86.5t-24 -86t-56.5 -74t-81.5 -50.5t-98.5 -15.5q-34 2 -70.5 14t-67.5 33.5t-53 52.5t-28 70q-6 57 18 102.5t66 82.5q-54 47 -67 105t7 111q13 35 36 58.5t51.5 38.5t62 22.5t67.5 9.5q39 2 77.5 -10t69.5 -34t51.5 -52.5t25.5 -65.5
t-9.5 -73.5t-54.5 -75.5q-1 0 -1 -0.5t-1 -0.5zM258 571q-24 0 -43 -16t-26.5 -38t0.5 -45.5t37 -39.5q13 7 27.5 14t25.5 18q27 25 34 45.5t0.5 35t-22 21.5t-33.5 5zM183 200q-8 -24 -2 -41.5t20 -27.5t34 -12t39 5q26 9 39.5 29.5t14.5 43.5t-11 45.5t-38 35.5
q-14 -1 -28.5 -7.5t-27.5 -17t-23.5 -24.5t-16.5 -29z" />
    <glyph glyph-name="nine" unicode="9" horiz-adv-x="555" 
d="M304 220q-64 -9 -117.5 2t-91.5 40t-58 74t-18 103q1 43 15 83.5t39 73.5t60.5 57t80.5 34q17 3 33 4.5t33 -0.5q64 -4 112 -32.5t78 -73.5t41 -102.5t1 -118.5q-8 -52 -26.5 -107.5t-45 -105t-60 -88t-71.5 -56.5q-21 -10 -51 -6q-26 5 -51 18t-36 33q-7 12 -4 28t17 24
q15 9 33 22t35 28.5t31 32.5t21 33zM234 362q32 -8 57.5 0t42 24.5t23.5 39.5t2 44.5t-23.5 39t-51.5 24.5q-20 3 -39 -1.5t-34 -19.5q-17 -17 -23 -40.5t-3 -46t15.5 -40.5t33.5 -24z" />
    <glyph glyph-name="equal" unicode="=" horiz-adv-x="437" 
d="M50 441q81 1 161 1t161 -2q7 -1 11 -5q4 -3 7 -9.5t4 -17.5v-23t-2.5 -22.5t-8.5 -17.5t-16 -9q-5 0 -21 0.5t-38.5 1.5t-50 2t-54.5 3q-28 2 -54 3t-46 2q-24 1 -45 2q-3 -1 -7 1q-8 4 -9 20q-1 9 -2 20.5t-1 22.5t2.5 18.5t8.5 8.5zM50 274q81 2 161 1.5t161 -2.5
q7 -1 11 -5q4 -3 7 -9t4 -17v-24t-2.5 -22t-8.5 -17.5t-16 -8.5q-5 -1 -21 -0.5t-38.5 1.5t-50 2t-54.5 2q-28 2 -54 3.5t-46 2.5q-24 1 -45 2q-3 -1 -7 1q-8 4 -9 20q-1 9 -2 21t-1 22.5t2.5 18t8.5 8.5z" />
    <glyph glyph-name="question" unicode="?" horiz-adv-x="593" 
d="M349 745q54 -6 103 -29.5t78 -69.5q16 -26 24 -55.5t7 -59t-12 -57.5t-32 -52q-23 -27 -49 -47t-53.5 -38t-56 -36t-55.5 -42q-19 -17 -27 -32.5t-8 -31.5q-1 -17 -12 -19.5t-25 -2.5q-23 0 -42 7t-31.5 20t-17.5 32t0 44q12 48 41.5 77.5t67.5 56.5q15 9 37.5 24.5
t45.5 33.5t42.5 37.5t27.5 38.5q11 24 6.5 41.5t-18.5 29t-35 16.5t-44.5 4t-46 -8t-39.5 -19t-31 -26t-21.5 -30t-7 -35.5t13.5 -41.5q10 -18 0 -37t-29.5 -31.5t-43.5 -14.5t-42 14q-23 20 -32.5 47.5t-8.5 57t10.5 59.5t24.5 55q21 36 55 61t74.5 40t82.5 19.5t79 -0.5z
M283 66q0 -29 -24.5 -50t-57.5 -21q-35 0 -58.5 21t-23.5 50q0 31 23.5 52t58.5 21q33 0 57.5 -21t24.5 -52z" />
    <glyph glyph-name="at" unicode="@" horiz-adv-x="791" 
d="M560 689q43 -21 77 -52t57.5 -69.5t35.5 -82t12 -89.5q0 -32 -6.5 -66.5t-20.5 -66t-36 -58t-53 -42.5q13 -11 14 -30q0 -30 -20.5 -54.5t-47.5 -41.5q-47 -28 -97 -39.5t-99.5 -8t-97 21t-88.5 46.5q-37 27 -65 61.5t-47 74.5t-28 83.5t-7 87.5q2 50 16 97.5t39.5 89
t62.5 76t85 57.5q36 17 75.5 26.5t80 10.5t80.5 -7t78 -25zM294 162q46 -26 96 -21.5t101 26.5q-7 3 -12 8t-12 10q-27 -8 -56 -10t-59 4q-53 12 -92.5 45.5t-59.5 90.5v-1q1 -3 1 -6t1 -6q7 -42 29 -80t63 -60zM418 312q0 6 0.5 15t1 19l1 20t1.5 16q-20 8 -36 4
t-26.5 -14.5t-13.5 -24t3 -24t23 -15t46 3.5zM567 302q27 41 32 88.5t-11.5 88.5t-53.5 69t-94 30q-66 2 -126.5 -34t-92.5 -102q14 28 40 44t57.5 23.5t64.5 7.5t62 -4q5 7 11 11.5t14 3.5q14 -2 31.5 -4t32.5 -11q18 -11 26 -29q5 -9 6 -21.5t0 -29.5q-3 -28 -4 -58t2 -75
l1 -1h1v1q0 1 0.5 1t0.5 1z" />
    <glyph glyph-name="A" unicode="A" 
d="M416 727q38 -22 65 -54t45.5 -70t29.5 -80.5t17 -85.5q14 -85 16 -172t-3 -175q-2 -25 -4 -41t-7.5 -26t-15.5 -16t-28 -11q-17 -2 -35.5 -3t-34.5 10q-15 10 -25 34t-11 69v10q-25 3 -59.5 5t-70.5 2.5t-69.5 0.5h-56.5q-1 -9 -2.5 -30t-6.5 -42t-13.5 -38t-23.5 -18
q-14 -1 -32 -2t-35 4q-17 4 -28.5 16t-12.5 38q0 31 1 71t4 87q2 39 6.5 85.5t13 95.5t22 98t34 93t48.5 81t67 62q46 29 101 29t104 -27zM173 272q63 5 125.5 7.5t125.5 0.5q3 71 -6 127t-25 94.5t-38 59t-45 20.5q-20 0 -41.5 -20.5t-40 -60t-33.5 -97.5t-22 -131z" />
    <glyph glyph-name="B" unicode="B" horiz-adv-x="558" 
d="M446 385q44 -34 65.5 -84.5t13.5 -104.5q-9 -61 -48 -102.5t-92 -65.5t-114.5 -32t-115.5 -2q-5 -2 -9 -2.5t-9 -1.5q-18 -1 -37 0t-34.5 6.5t-26.5 18t-13 35.5q-2 11 -1 44.5t2 81.5q2 49 3.5 106.5t2.5 115.5q1 76 2 153t-6 155q-2 9 2 16q2 6 9 11.5t21 7.5
q10 1 22 3t25 3t25 0t21 -4q51 7 107 0.5t105.5 -26.5t86 -53.5t48.5 -81.5q5 -21 6 -44t-5 -47.5t-19.5 -51t-36.5 -54.5zM187 444q48 -2 81 10t49.5 31.5t16 42.5t-17.5 41t-51 27.5t-86 2.5q3 -39 4.5 -77t3.5 -78zM190 154q54 -6 91 5t55.5 30t19 41t-17.5 38t-55 21.5
t-93 -7.5v-128z" />
    <glyph glyph-name="C" unicode="C" horiz-adv-x="554" 
d="M372 535q1 29 -9.5 43.5t-26.5 18t-34.5 -3.5t-33.5 -20q-35 -30 -56.5 -76.5t-29 -97.5t-1 -101.5t28.5 -87.5q14 -24 33.5 -35.5t41.5 -13t43.5 7t38.5 25.5q26 26 42 37t36 12q57 0 75.5 -32t2.5 -78q-13 -36 -39.5 -63t-61.5 -43.5t-75 -23t-79 -3.5t-74 16.5
t-60 36.5q-28 26 -49 59.5t-35 71t-21 78t-7 81.5q2 92 39 178t98 150q28 29 66.5 49.5t79 26.5t79.5 -4t69 -42q23 -24 37 -55t21 -62q4 -20 3.5 -38t-8.5 -34q-11 -20 -34 -28.5t-45.5 -5.5t-39 17.5t-15.5 39.5z" />
    <glyph glyph-name="D" unicode="D" horiz-adv-x="538" 
d="M166 740q77 -2 137 -28.5t103 -69.5t68 -98.5t32 -116t-4.5 -122t-41.5 -117t-80 -101t-119 -73.5q-34 -14 -72 -21t-76 -5q-29 2 -54 14t-29 45q-1 11 -1 45.5t1 82.5q0 132 2.5 264t1.5 272q-1 8 3 15q3 6 9.5 11t20.5 7q10 1 24 2.5t28 1.5t26.5 -1.5t20.5 -6.5z
M191 163q53 20 89.5 56t56 79.5t20.5 89.5t-17.5 87t-57.5 72.5t-100 44.5q5 -107 6.5 -214t2.5 -215z" />
    <glyph glyph-name="E" unicode="E" horiz-adv-x="513" 
d="M438 153q29 0 37 -10.5t6 -42.5q-1 -18 -2.5 -36.5t-5.5 -34t-10 -26.5t-16 -14q-5 -2 -20 -0.5t-36 3.5q-59 5 -118.5 5t-125.5 -5q-16 -2 -32 -2t-31 4.5t-27 14.5t-19 30q-4 12 -6.5 48t-2.5 86q0 132 1 266t11 266q0 25 20 34.5t45 9.5q40 2 85 3.5t90.5 2.5t89.5 1
h83q3 -1 6 -3q6 -4 11 -13q6 -11 8.5 -33t1 -45.5t-8.5 -43t-19 -25.5q-5 -1 -21.5 -1t-39 0.5t-50 2t-54 3t-51 2.5t-41.5 1l-4 -160l186 1q19 -3 26 -25t6.5 -48.5t-8 -49t-17.5 -26.5q-5 -2 -26.5 -1.5t-50.5 1.5t-61 2.5t-57 3.5q-1 -39 -0.5 -77t2.5 -76q26 3 57 4.5
t63.5 2.5t65 1t60.5 -1z" />
    <glyph glyph-name="F" unicode="F" horiz-adv-x="484" 
d="M439 745q7 -2 11 -8q4 -5 7 -15.5t2 -27.5q-1 -18 -3 -37t-6 -34.5t-11 -26.5t-18 -13q-16 0 -65 6q-23 2 -52.5 5t-60.5 6q-15 1 -30.5 1.5t-29.5 2.5q-1 -41 -0.5 -81t1.5 -81q99 12 198 3q1 0 3 -1t6 -5q3 -6 5.5 -16t1.5 -27q-1 -18 -3 -37t-5 -34.5t-8 -26.5
t-13 -14h-16.5t-28.5 2q-34 3 -67.5 5.5t-68.5 0.5q3 -62 6.5 -123.5t8.5 -122.5q-1 -12 -5 -23q-5 -9 -14 -17t-26 -11t-35.5 -5.5t-35 0.5t-29 14t-17.5 34q-2 11 -4.5 45.5t-4.5 85.5q-4 137 -1 273t10 274q0 8 3 14q2 5 8 10.5t17 7.5h1q93 8 184.5 7.5t184.5 -10.5z
" />
    <glyph glyph-name="G" unicode="G" horiz-adv-x="613" 
d="M579 354q2 -23 3.5 -47t0.5 -48q-2 -55 -22.5 -106t-59.5 -90q-35 -35 -78 -50.5t-88.5 -15.5t-90.5 15.5t-83 43.5q-43 33 -72.5 77.5t-44.5 96t-17 106.5t8.5 109t33.5 103.5t57 90.5q29 35 67 59t80 36.5t85 12t81.5 -16.5t69 -48.5t48.5 -82.5q8 -25 11 -51.5
t3 -54.5q-2 -13 -8.5 -23.5t-20.5 -12.5q-7 0 -17.5 -1t-22.5 -1.5t-23 0t-19 2.5q-17 3 -22 16t-7 32q0 45 -22.5 70t-54.5 28q-23 2 -43.5 -6t-38 -22t-32 -33t-24.5 -39q-14 -26 -21 -56t-9 -61q-2 -33 1 -66t17 -65q8 -18 19.5 -36t26.5 -32.5t33.5 -23.5t41.5 -10
q40 0 65.5 23.5t27.5 57.5l-136 -10q-5 1 -10 6t-9.5 14t-6.5 26q-3 17 -5.5 35t-2 33.5t4.5 27t14 15.5q4 2 19.5 3t37 1.5t48 0.5h52.5t51 -0.5t45 -0.5h42q3 0 7 -3q3 -3 5.5 -9t4.5 -19z" />
    <glyph glyph-name="H" unicode="H" horiz-adv-x="623" 
d="M491 750q14 -2 32.5 -4t35 -6.5t27.5 -11.5t10 -19q-17 -165 -18.5 -329t11.5 -330q-1 -3 -1 -7q-1 -3 -1 -6.5t-2 -8.5q-6 -9 -15 -17t-26 -13q-17 -3 -36 -5t-35.5 1.5t-29 14t-17.5 33.5q-3 16 -4.5 33.5t-2.5 40.5t-1.5 53t-0.5 72q-20 0 -48.5 2t-59.5 4.5t-61 5
l-54 4.5q-1 -54 -1.5 -108t-0.5 -108q-1 -12 -7 -22q-5 -8 -15.5 -15.5t-27.5 -8.5q-18 -1 -37 -1t-35 5.5t-27 17t-13 34.5q-1 6 -0.5 19t0.5 31q0 72 2 144t4.5 147.5t4.5 155.5t3 167q-1 9 3 16q3 6 9.5 11t20.5 6q13 1 31.5 2t35.5 -0.5t29 -7t13 -18.5q4 -81 5.5 -160
t2.5 -159l229 -1v3q5 78 13 156t18 159q1 9 5 15q4 5 11 9.5t21 3.5z" />
    <glyph glyph-name="I" unicode="I" horiz-adv-x="221" 
d="M190 44q-2 -12 -7 -22q-5 -8 -15 -15.5t-27 -9.5q-18 -2 -36.5 -3t-34.5 3.5t-27.5 16t-14.5 34.5q-2 11 -1.5 46t1.5 84t3 108t4 119q5 141 13 312q-2 9 2 16q2 6 9 10.5t21 5.5q14 0 32.5 0.5t35.5 -1.5t29 -8t12 -18z" />
    <glyph glyph-name="J" unicode="J" horiz-adv-x="549" 
d="M476 718q13 -52 24.5 -114t17 -126.5t4 -129.5t-13.5 -123q-10 -46 -30 -87t-50 -72.5t-68.5 -50.5t-85.5 -22q-45 -2 -83.5 11.5t-69 39t-51.5 60t-31 74.5q-8 33 -10 70.5t2 75t14 73.5t25 66q9 18 25.5 25t34.5 6.5t35.5 -7t29.5 -16.5q14 -11 16 -24t-1 -27
q-3 -15 -7 -36t-7 -44t-5 -46.5t-1 -45.5q3 -53 25.5 -76.5t50 -22t53.5 27.5t37 72q13 56 15.5 111t-1.5 108.5t-12.5 105.5t-17.5 103q-5 17 -2 35t21 25q13 4 30.5 9.5t34.5 6.5q19 2 33 -7.5t19 -27.5z" />
    <glyph glyph-name="K" unicode="K" horiz-adv-x="577" 
d="M479 574q-36 -34 -73.5 -67t-77.5 -67q61 -90 115 -183.5t96 -193.5q4 -15 -9 -27.5t-25 -19.5q-16 -8 -33 -15t-33 -10.5t-29.5 -1.5t-20.5 13q-4 6 -10 20q-38 82 -77.5 164.5t-86.5 164.5q-3 -3 -6.5 -5.5t-7.5 -5.5q-1 -77 -1.5 -153t-5.5 -152q-2 -13 -8 -23
q-5 -9 -15.5 -16t-27.5 -9q-17 0 -35.5 0.5t-34.5 5.5t-27 17t-14 35q0 11 1.5 46t3.5 83q5 106 9.5 214t4.5 229v97q-2 8 2 15q2 6 9 11.5t21 7.5q14 1 32.5 2t35.5 -0.5t29 -6.5t13 -17q2 -50 4 -99t3 -98q57 54 112.5 109t108.5 113q6 4 15 6q8 1 18.5 -1t24.5 -13
t28.5 -22.5t25 -24.5t13.5 -26.5t-5 -26.5q-5 -8 -21 -26t-41 -43z" />
    <glyph glyph-name="L" unicode="L" horiz-adv-x="463" 
d="M435 114q1 -17 1 -36t-2 -35.5t-7 -28t-15 -14.5q-5 -2 -19.5 -2t-34.5 1q-54 2 -112 -0.5t-119 -2.5q-15 0 -30.5 0.5t-28.5 6t-23 16.5t-14 31q-1 5 -1.5 35.5t-0.5 76v102.5t0.5 116.5t1 117t0.5 103.5t0.5 77t0.5 37q-1 9 2 16q2 6 9 11t21 6t35.5 1.5t41.5 -1
t35 -7.5t16 -18q2 -144 2.5 -286.5t-0.5 -285.5q51 5 103.5 8t115.5 4q7 0 11.5 -5.5t6.5 -13.5t3 -16t1 -14z" />
    <glyph glyph-name="M" unicode="M" horiz-adv-x="761" 
d="M728 45q-2 -12 -7 -22q-5 -8 -15 -16t-27 -10t-35.5 -3t-34.5 3.5t-28 16t-15 34.5q-1 10 -1 41.5t0.5 76t1.5 99t3 110.5q-16 -32 -31.5 -62t-29.5 -56t-26 -47.5t-20 -35.5q-6 -10 -11 -18.5t-16 -14.5q-12 -7 -27.5 -10.5t-31 -2t-29.5 7t-23 16.5q-6 7 -19.5 30.5
t-31.5 57t-39.5 74.5t-42.5 84l3 -353q-2 -12 -7 -22q-5 -8 -15 -16t-27 -10q-18 -2 -36.5 -3t-34.5 3.5t-28 16t-15 34.5q-2 11 -2 45.5t1 83.5t2.5 108t3.5 119q4 141 12 312q-1 9 2 16q2 6 9 11t21 6q8 0 24 1t33 -0.5t32 -5.5t21 -13q48 -91 96.5 -181t99.5 -180
q49 88 97 176t94 177q3 9 14.5 17t22.5 9q13 0 31.5 1t35 -1t28.5 -8t13 -19z" />
    <glyph glyph-name="N" unicode="N" horiz-adv-x="643" 
d="M617 695q1 -11 1 -45.5t-0.5 -83.5t-2 -107.5t-3.5 -117.5q-4 -139 -11 -308q1 -9 -3 -16q-3 -6 -10.5 -11t-21.5 -5q-15 0 -35 -1.5t-40.5 -0.5t-38 7.5t-28.5 22.5q-8 10 -28.5 43.5t-44.5 80.5q-40 77 -81 153.5t-83 158.5l7 -419q-1 -12 -6 -22q-5 -9 -14.5 -17
t-26.5 -10q-18 -2 -36.5 -3t-35 3t-28 15t-14.5 34q-2 11 -2.5 46t-0.5 84t1 108t2 119q3 141 7 312q-1 9 3 16q3 6 9.5 11t20.5 6q8 1 27.5 2t40 1t37.5 -3t21 -10q65 -107 127.5 -214t123.5 -216l5 392q1 12 7 22q5 8 15 16t28 10q18 1 36.5 1.5t34.5 -4t27 -16t14 -34.5z
" />
    <glyph glyph-name="O" unicode="O" horiz-adv-x="675" 
d="M339 -6q-64 0 -121.5 30t-101.5 87q-42 54 -63.5 121t-21.5 139q0 75 21.5 141.5t63.5 119.5q44 57 101.5 87.5t121.5 30.5q65 0 122 -30.5t101 -87.5q42 -53 63 -119.5t21 -141.5q0 -72 -21 -139t-63 -121q-44 -57 -101 -87t-122 -30zM339 606q-33 0 -62.5 -18.5
t-52 -51t-35.5 -75t-13 -90.5q0 -47 13 -89.5t35.5 -74.5t52 -50.5t62.5 -18.5t63 18.5t52.5 50.5t35.5 74.5t13 89.5q0 48 -13 90.5t-35.5 75t-52.5 51t-63 18.5z" />
    <glyph glyph-name="P" unicode="P" horiz-adv-x="545" 
d="M400 703q65 -37 93 -95.5t25 -122.5t-35.5 -126t-88.5 -105q-43 -33 -94.5 -54.5t-108.5 -29.5q-1 -32 -1 -63.5v-63.5q-2 -12 -8 -22q-5 -8 -15 -16t-27 -9q-18 -2 -37 -2t-35 4.5t-27 16.5t-14 35q-1 11 -0.5 45.5t2 83t3 107.5t3.5 119t3.5 115t3.5 99q1 51 2 96
q-1 9 3 16q3 6 9.5 11t20.5 6q14 2 33 2.5t36 -1.5q40 1 77 0q49 -2 94 -13t83 -33zM190 344q53 4 90 24.5t56.5 48.5t20.5 59.5t-17 57t-55.5 40.5t-95.5 11q1 -57 1 -120.5v-120.5z" />
    <glyph glyph-name="Q" unicode="Q" horiz-adv-x="686" 
d="M654 99q3 -5 2 -12q-1 -6 -5 -15.5t-16 -21.5q-12 -13 -25.5 -26.5t-26.5 -23t-25 -13.5t-21 2q-7 5 -19 18.5t-29 33.5q-68 -47 -150 -47q-66 0 -122.5 30t-100.5 87q-41 54 -62.5 121t-21.5 139q0 75 21.5 141.5t62.5 119.5q44 57 100.5 87.5t122.5 30.5
q64 0 121.5 -30.5t101.5 -87.5q41 -53 62.5 -119.5t21.5 -141.5q0 -56 -12.5 -108.5t-38.5 -99.5zM339 138q32 0 58 16q-29 36 -48 62q-11 14 -20 26q-3 4 -3 8t2.5 10t12.5 16t24 23t26.5 23.5t23 16.5t15.5 2l58 -62q6 22 9.5 45.5t3.5 46.5q0 48 -13 90.5t-35.5 75
t-51.5 51t-62 18.5t-63 -18.5t-52 -51t-35 -75t-13 -90.5q0 -47 13 -89.5t35 -74.5t52 -50.5t63 -18.5z" />
    <glyph glyph-name="R" unicode="R" horiz-adv-x="547" 
d="M512 549q11 -54 -2.5 -101t-42.5 -85.5t-70 -68t-85 -48.5q16 -20 37.5 -39.5t44.5 -35t46 -27.5t41 -17q15 -6 21 -20t5 -31.5t-8.5 -35.5t-19 -32t-26.5 -21t-31 -3q-3 1 -10.5 2.5t-18.5 5.5q-60 22 -108.5 68t-93.5 101q0 1 -3 4q0 -30 -0.5 -60.5t-0.5 -61.5
q-1 -12 -7 -22q-5 -8 -15.5 -16t-27.5 -9q-17 -2 -35.5 -2t-34.5 4.5t-27 16.5t-14 35q-2 11 -2 45.5t1.5 83t4 107.5t4.5 119t2.5 115t2.5 99q1 51 3 96q-1 9 2 16q2 6 9 11t21 6q14 2 33.5 2.5t37.5 -1.5q37 1 77 0q45 -2 92 -14t87.5 -36.5t70.5 -61.5t40 -88zM189 357
q50 3 86.5 22.5t56 46.5t21.5 57t-15 54.5t-54.5 38.5t-97.5 9q1 -57 1.5 -114t1.5 -114z" />
    <glyph glyph-name="S" unicode="S" horiz-adv-x="561" 
d="M246 495q30 -25 65.5 -43.5t70.5 -37t66 -41.5t52 -56q19 -31 25.5 -66.5t1 -70.5t-23 -68t-45.5 -58q-42 -34 -94 -47.5t-107 -10.5q-39 2 -76.5 14t-69 33.5t-53.5 53t-31 72.5q-2 13 -3 25.5t1 24.5q5 20 18 36t29 28t31.5 18.5t25.5 8.5q10 1 16.5 -1.5t9.5 -7t4 -9
t1 -6.5q1 -20 8.5 -41.5t19.5 -40.5t29 -34t38 -21q22 -7 44 -1q29 8 42 26.5t12 36.5q-1 17 -11.5 34.5t-28.5 33.5q-33 28 -73 51t-78 48t-69.5 56t-47.5 76q-19 60 -2.5 106t54.5 77t89.5 46.5t101.5 12.5q43 -2 83.5 -15.5t74 -36t57 -53.5t31.5 -68q4 -23 -7 -42.5
t-28.5 -34t-38 -22t-34.5 -4.5q-19 7 -29 31q-25 60 -57.5 83.5t-61 22.5t-47.5 -21.5t-17 -49.5q1 -11 9.5 -23.5t22.5 -23.5z" />
    <glyph glyph-name="T" unicode="T" horiz-adv-x="550" 
d="M521 712q2 -17 4 -36t0 -35t-9 -28t-22 -15q-11 -3 -51.5 -3.5t-94.5 0.5q5 -140 7.5 -278t2.5 -278q-2 -11 -7 -20q-5 -8 -15 -14.5t-27 -7.5q-18 -2 -36.5 -2.5t-34.5 3t-27.5 14t-14.5 30.5q-2 10 -2 41t0.5 74.5t2 95.5t3.5 105q2 73 3 138t2 103q-32 1 -59.5 1.5
t-48.5 1.5q-25 1 -45 1q-6 -1 -10 3q-4 3 -7.5 9t-4.5 20t-2.5 32.5t-1 35.5t3.5 29t11 12l447 15q8 -1 15 -6q6 -5 11 -14.5t7 -26.5z" />
    <glyph glyph-name="U" unicode="U" horiz-adv-x="671" 
d="M184 499q-2 -57 -2 -106.5t10 -94.5q10 -49 31 -80t47.5 -45.5t55 -12t55 19t47.5 46.5t31 73q10 40 14 92.5t4 106.5t-4 104.5t-8 86.5q-3 26 16 42t44.5 19.5t50 -7t32.5 -37.5q14 -46 20.5 -99t7.5 -106.5t-3 -105t-11 -95.5q-11 -59 -35 -114t-61.5 -97t-89 -67
t-116.5 -23q-41 1 -77 14t-66.5 34.5t-54.5 50.5t-41 62q-31 62 -42.5 140t-11.5 153.5t6.5 139t12.5 98.5q2 19 15 31.5t30.5 18.5t37.5 6t36.5 -6.5t27 -20t9.5 -32.5z" />
    <glyph glyph-name="V" unicode="V" horiz-adv-x="682" 
d="M581 744q16 -6 34.5 -13.5t32 -18.5t19 -26.5t-4.5 -36.5q-17 -36 -39 -85t-45.5 -103t-46.5 -109t-41 -102q-22 -55 -43 -112t-43 -118q-1 -4 -3 -8q-3 -8 -13 -13q-8 -4 -30 -5.5t-47 -1t-46.5 3t-28.5 6.5q-15 8 -23 25q-5 11 -17 44.5t-28 81.5q-17 49 -34.5 107
t-34.5 118l-42 156t-37 158q-3 8 -1 16q2 7 6.5 13.5t18.5 10.5q13 4 31 9.5t34.5 7.5t29.5 -0.5t17 -14.5q35 -132 75.5 -261t85.5 -258q42 125 89 246t101 241q5 11 12 21t16 16.5t20.5 8t25.5 -3.5z" />
    <glyph glyph-name="W" unicode="W" horiz-adv-x="896" 
d="M827 658q15 -50 27 -112.5t16 -128.5t-2 -131.5t-27 -122.5q-16 -45 -45 -79t-65.5 -54.5t-77 -27.5t-79.5 3t-73.5 37.5t-57.5 74.5q-21 -36 -51 -63t-64.5 -42t-71.5 -16t-71 16q-46 21 -75 58t-46 83t-24.5 98t-10.5 102q-3 47 0 99.5t11.5 103t22.5 94.5t35 74
q13 21 40 14q13 -4 30.5 -9t32.5 -15q14 -9 21.5 -22.5t2.5 -34.5q-27 -90 -37 -187.5t4 -194.5q10 -65 30.5 -88.5t43.5 -10.5t45 60t34 122q11 60 17.5 118t16.5 117q6 27 30 39t50.5 11t48 -15t23.5 -39q2 -42 0.5 -83t-1 -81.5t5.5 -81.5t22 -83q20 -53 47.5 -73
t51.5 -4.5t39 66.5t10 139q-5 63 -16 127t-23 114q-2 10 -3 23.5t1.5 27t9.5 25t19 17.5q17 8 34.5 14t35.5 2q17 -4 33.5 -21t29.5 -59z" />
    <glyph glyph-name="X" unicode="X" horiz-adv-x="647" 
d="M608 97q9 -17 6.5 -37t-18.5 -37q-14 -11 -30 -21t-32.5 -13.5t-33.5 2t-33 25.5q-12 15 -31.5 47t-41.5 68.5t-44.5 73t-38.5 60.5q-36 -55 -72.5 -110t-71.5 -114q-5 -6 -7.5 -10.5t-4.5 -7.5q-2 -2 -2 -3t-1 -2l-1 -1q-5 -9 -11 -14q-5 -5 -14 -6.5t-21 4.5
t-28.5 14.5t-30 19t-21 22t-1.5 23.5q47 84 96 164.5t101 160.5q-38 57 -76 112.5t-76 113.5q-5 6 -8 10.5l-5 7.5q-3 4 -4 7q-7 8 -9 16q-2 7 0 15.5t13 17.5t25.5 20t29.5 19t28.5 9.5t22.5 -9.5q38 -51 75 -101t74 -101q32 47 65 93t68 92q20 21 42 20.5t46 -14.5
q13 -8 25 -18.5t19 -23t6.5 -28t-11.5 -34.5q-5 -11 -28 -41t-56 -75q-17 -25 -37 -53t-42 -58q52 -75 101.5 -151t98.5 -154z" />
    <glyph glyph-name="Y" unicode="Y" horiz-adv-x="563" 
d="M422 748h32.5t35.5 -3t29 -10t12 -22q-1 -90 -1.5 -144.5t-1.5 -86t-2 -48t-2 -29.5q-6 -66 -21 -126t-45 -111.5t-76.5 -92.5t-115.5 -68q-15 -5 -41 -10t-53.5 -5.5t-52.5 6.5t-38 27q-9 14 -13.5 39t-2.5 49t12 40.5t28 13.5q28 -5 65 -3.5t72 13t63.5 34t39.5 60.5
q-67 -23 -119 -18.5t-89.5 31.5t-62 72t-37 102.5t-12.5 123t10 133.5q2 16 13 27t28 8q13 -1 32 -2t35.5 -4.5t28 -10t11.5 -16.5q-1 -8 -1.5 -14.5t-1.5 -14.5q-2 -24 -4 -62t1.5 -77t16 -74t38.5 -54q20 -14 43.5 -16t45.5 10t40.5 39t27.5 71q5 23 5.5 48t-0.5 49.5
t-3 47t-2 40.5q-1 11 3 19q3 7 9.5 12.5t20.5 6.5z" />
    <glyph glyph-name="Z" unicode="Z" horiz-adv-x="574" 
d="M443 503q-23 -37 -46 -73t-45 -74l-60 -102t-59 -103q64 2 137.5 1t137.5 -6q8 0 13.5 -5.5t8.5 -14t4 -17t1 -14.5q-1 -17 -2.5 -35.5t-6 -34t-13 -26t-21.5 -11.5q-8 -2 -29 0t-51 4q-82 11 -174 11t-178 -5q-5 -1 -9 2q-4 2 -8.5 8t-6.5 20q-4 22 -5.5 38.5t-1.5 28.5
t2 21.5t6 17.5q28 61 61.5 119t71 114.5t76.5 112.5l78 112q-63 -1 -125 -1t-125 2q-8 2 -14 7q-5 5 -10 14.5t-5 27.5q-1 17 -1 35.5t3 34.5t10 27t21 13q8 2 29.5 1t51.5 -3q88 -6 174 -5.5t175 -0.5h17t9 -1.5t3.5 -6t2.5 -14.5q1 -11 2 -25.5t1 -28t-1.5 -23.5t-4.5 -13
q-25 -27 -48 -59.5t-46 -69.5z" />
    <glyph glyph-name="a" unicode="a" horiz-adv-x="580" 
d="M544 516q-10 -121 -12.5 -240.5t5.5 -240.5q-1 -8 -6 -16q-5 -7 -14.5 -13.5t-26.5 -8.5q-15 -2 -32 -4t-32 -0.5t-27 6.5t-18 16q-22 -5 -44 -9.5t-45 -6.5q-67 -6 -117.5 18t-82.5 67t-45 99t-5.5 114t36 112t79.5 93q55 38 121.5 47t133.5 -9q8 6 26 5q14 -1 32.5 -2
t35 -4t27.5 -8.5t11 -14.5zM388 395q-45 18 -80 11t-59 -29.5t-37 -55t-15 -65t7.5 -60.5t31.5 -41.5t55.5 -7t80.5 42.5q2 26 3 51.5t3 51.5q2 27 4 53t6 49z" />
    <glyph glyph-name="b" unicode="b" horiz-adv-x="517" 
d="M192 499q39 0 81 -10.5t80 -31t68.5 -50.5t48.5 -70q23 -56 11.5 -114.5t-49.5 -106.5q-28 -34 -66 -57.5t-81.5 -38.5t-91 -21.5t-95.5 -4.5q-23 2 -40 13t-21 40q-2 6 -3.5 36.5t-2 76.5t-0.5 103t0.5 116.5t1.5 117t2 103.5t1.5 77t1.5 37q-1 8 3 15q3 6 9.5 10.5
t20.5 5.5q13 1 33.5 1t39.5 -2.5t32.5 -9t14.5 -18.5v-108.5t1 -108.5zM194 164q40 3 68.5 18t44 36t17 44.5t-12.5 43.5t-43 33.5t-75 14.5q0 -48 0.5 -95t0.5 -95z" />
    <glyph glyph-name="c" unicode="c" horiz-adv-x="535" 
d="M404 236q16 -3 33.5 -6.5t31.5 -9.5t22 -16.5t6 -26.5q-5 -41 -24 -73.5t-47 -56.5q-45 -40 -99.5 -50.5t-108.5 5.5q-27 8 -50.5 22t-44.5 32q-42 38 -65 91t-25.5 110t15 113.5t55.5 102.5q31 38 76 61.5t94 28t96 -12t82 -58.5q11 -14 22.5 -36t11.5 -43
q0 -14 -7.5 -25.5t-19.5 -20t-26 -14t-26 -7.5q-26 -3 -36.5 0t-12.5 15q-4 27 -16 43t-28 21.5t-34 1.5t-34 -16q-25 -17 -39.5 -47.5t-17.5 -66t4.5 -70t26.5 -58.5q18 -23 40 -27.5t42.5 4.5t37 28.5t25.5 43.5q5 14 16 17t24 1z" />
    <glyph glyph-name="d" unicode="d" horiz-adv-x="554" 
d="M518 716q-11 -333 0 -668q-1 -12 -6 -23q-5 -9 -14.5 -17t-26.5 -10q-23 -3 -47.5 -3.5t-40.5 9.5q-63 -13 -128.5 -7t-118.5 41q-46 30 -71 74.5t-31 94.5t5.5 102t38.5 96q22 35 54 61t69.5 42t79.5 20.5t83 -4.5q2 41 4.5 75.5t4.5 60.5q2 30 4 55q-1 9 3 16
q3 6 10 11.5t21 5.5q13 0 31.5 -0.5t35 -3.5t28.5 -9.5t12 -18.5zM358 376q-38 14 -68 9t-51 -21.5t-32.5 -41.5t-13 -51.5t7.5 -51.5t28.5 -42t50 -22t73.5 9q0 49 1.5 100t3.5 112z" />
    <glyph glyph-name="e" unicode="e" horiz-adv-x="533" 
d="M205 533q61 18 116.5 8.5t96 -41t62.5 -84t15 -119.5q-2 -13 -7 -22t-16 -11q-5 -2 -21 -3t-38.5 -1t-49.5 0.5t-54 1.5q-37 2 -69 3t-52 3q-1 -24 3.5 -47t15.5 -41.5t29 -30.5t45 -14q21 -2 42 8t38 34q13 20 33 24t39 -3.5t32 -24.5t13 -39q0 -27 -14.5 -49.5
t-36.5 -40t-48.5 -29.5t-50.5 -16q-30 -6 -61 -4.5t-60 9.5q-64 20 -106 70.5t-59 112.5q-16 58 -9 123t40 119q23 35 55 62.5t77 41.5zM208 366q71 0 143 3q-5 33 -23.5 47.5t-41 12.5t-44.5 -18.5t-34 -44.5z" />
    <glyph glyph-name="f" unicode="f" horiz-adv-x="473" 
d="M433 666q16 -8 18.5 -23.5t-1.5 -33t-12.5 -34t-15.5 -26.5q-6 -8 -13.5 -13.5t-18.5 -1.5q-42 21 -70.5 29.5t-45.5 0.5t-24.5 -33.5t-8.5 -71.5q-1 -26 -1 -51v-51q39 2 84.5 3t84.5 1q13 -6 20 -30.5t7.5 -52.5t-6.5 -51.5t-21 -26.5q-6 -2 -29 -2t-49 1
q-19 0 -39.5 0.5t-43.5 1.5q4 -62 6.5 -110t3.5 -86.5t1 -70.5t-1 -62q0 -13 -2 -29.5t-8 -31t-17.5 -24.5t-29.5 -10q-15 0 -33 2t-34 9t-27 19t-11 32q0 81 -0.5 175t-5.5 189h-33q-4 -2 -8 1q-3 2 -6.5 8.5t-5.5 20.5q-2 13 -4.5 31.5t-3 35.5t1.5 29t8 13q12 2 23.5 3
t23.5 2v66t4 72t13 70.5t26.5 63t45.5 48t70 25.5q22 3 47.5 3t50.5 -3.5t48.5 -10t41.5 -15.5z" />
    <glyph glyph-name="g" unicode="g" horiz-adv-x="570" 
d="M518 531q3 -81 8 -166.5t6 -173.5q0 -35 0.5 -82.5t-4.5 -96.5t-17 -94t-36 -76q-43 -58 -113.5 -84.5t-153.5 -19.5q-37 2 -71 13.5t-44 41.5q-9 23 -5.5 50.5t17.5 47.5q11 13 26.5 12.5t33.5 -2.5q26 -2 54.5 -4.5t57.5 4.5q21 5 38.5 12.5t31 24t21 45.5t9.5 78
q-62 -24 -122.5 -19t-108.5 33t-78 76.5t-31 111.5q-1 36 9.5 72t33.5 69q23 34 54.5 58.5t68.5 39t78.5 18.5t83.5 -4q0 14 6 22.5t22 14.5q13 3 33.5 6t39.5 2.5t34 -7t18 -23.5zM375 360q-58 25 -96.5 14t-57 -38t-17.5 -61.5t21 -57t58 -23.5t95 38q0 29 -0.5 60
t-2.5 68z" />
    <glyph glyph-name="h" unicode="h" horiz-adv-x="550" 
d="M192 496q40 22 81 29.5t79 0t70.5 -30t55 -59t33 -88.5t4.5 -118l-9 -188q-2 -13 -8 -23q-5 -8 -15.5 -15.5t-27.5 -7.5q-18 -1 -37 -1t-34.5 5t-26.5 17.5t-13 36.5q0 47 4.5 92.5t7.5 93.5q5 51 -6 82.5t-29.5 45.5t-41 12t-42.5 -19t-33 -47.5t-11 -72.5q3 -97 9 -189
q0 -19 -12.5 -33.5t-32.5 -17.5q-18 -3 -36.5 -5.5t-34.5 1t-28.5 14t-16.5 33.5q-11 158 -10 320.5t13 327.5q1 11 3.5 21t8 18t15 12.5t24.5 4.5q13 -1 31.5 -2t35 -4t28 -9.5t11.5 -18.5q-7 -109 -9 -218z" />
    <glyph glyph-name="i" unicode="i" horiz-adv-x="239" 
d="M198 451q-2 -106 -2 -210.5t3 -209.5q-2 -7 -7 -14q-5 -6 -14.5 -12t-26.5 -8t-35.5 -2.5t-34.5 1.5t-27.5 9t-14.5 21q-2 7 -2.5 29t0 53t2 68.5t4.5 75.5q2 38 4.5 74t4.5 64q3 33 6 61q-1 6 3 10q3 4 9.5 6.5t20.5 2.5h32t34.5 -1.5t28.5 -5.5t12 -12zM208 583
q0 -26 -21.5 -44.5t-51.5 -18.5t-51.5 18.5t-21.5 44.5q0 27 21.5 46t51.5 19t51.5 -19t21.5 -46z" />
    <glyph glyph-name="j" unicode="j" horiz-adv-x="504" 
d="M461 459q1 -14 1.5 -27.5t1.5 -27.5q1 -42 5 -98.5t5 -117.5t-3.5 -123t-18.5 -115.5t-41.5 -94.5t-72.5 -61q-36 -15 -76 -15.5t-77.5 13t-69.5 41t-50 68.5q-25 54 -29.5 115.5t8.5 112.5q5 23 18 35.5t30.5 17.5t37.5 4t39 -5q26 -7 34 -24.5t5 -40.5q-2 -18 -4.5 -39
t-2.5 -32q0 -53 15 -78.5t34.5 -24t38 28.5t25.5 78q5 51 5 103t-2.5 103t-6 101t-3.5 98q-2 16 7.5 28.5t27.5 14.5q14 2 33.5 3t38 -2t32 -12t15.5 -27zM453 596q0 -26 -21.5 -45t-52.5 -19q-30 0 -51.5 19t-21.5 45t21.5 45t51.5 19q31 0 52.5 -19t21.5 -45z" />
    <glyph glyph-name="k" unicode="k" horiz-adv-x="552" 
d="M513 456q-13 -24 -33.5 -43.5t-44 -36.5t-48.5 -33t-48 -33q39 -54 85.5 -110.5t94.5 -101.5q3 -5 3 -12q0 -6 -3.5 -15.5t-14.5 -23.5q-11 -13 -23 -27t-24.5 -24.5t-24 -15t-21.5 0.5q-12 6 -29 24t-36.5 42t-40 53t-39 56t-34 51t-24.5 39q-3 -1 -5.5 -2t-4.5 -2v-202
q-2 -12 -7 -22q-5 -9 -15 -17t-27 -10q-18 -1 -36.5 -1.5t-34.5 4t-27.5 16t-14.5 34.5q-1 6 -1 18v29q0 156 3.5 311t8.5 313q1 8 5 14q4 5 11.5 10t21.5 7q14 1 32.5 1.5t35 -1.5t28.5 -8t13 -18q1 -80 2 -159.5t1 -159.5q51 31 97 67.5t88 82.5q14 14 28 16.5t34 -11.5
q8 -5 22.5 -16.5t27 -26t19.5 -29.5t0 -28z" />
    <glyph glyph-name="l" unicode="l" horiz-adv-x="237" 
d="M197 44q-2 -12 -7 -22q-5 -8 -14.5 -15.5t-26.5 -9.5t-36 -3t-35 3t-27.5 15.5t-14.5 33.5q-2 11 -2 45.5t1 83t2.5 107t3.5 118.5q4 139 10 310q-1 9 3 16q3 6 9.5 10.5t20.5 5.5q14 0 32.5 1t35 -1t28.5 -8t13 -19z" />
    <glyph glyph-name="m" unicode="m" horiz-adv-x="907" 
d="M480 469q40 52 95 76.5t109 19t98.5 -43t62.5 -110.5q21 -82 20 -177.5t-7 -189.5q-2 -32 -19 -42t-44 -11q-18 0 -36.5 0.5t-34 7t-26 20t-11.5 38.5q-2 34 0.5 68t5.5 68.5t4 69.5t-5 71q-9 57 -34.5 77.5t-54.5 7.5t-54 -59t-32 -122q-4 -42 -5 -85.5t2 -88.5
q3 -20 -4.5 -32t-21 -19t-29.5 -9.5t-30 -2.5q-38 0 -57 23t-23 62q-3 35 1 71.5t6 72.5q5 49 -4 85t-25.5 55t-37.5 19.5t-40 -21.5t-33.5 -68t-18.5 -120l3 -145q-2 -9 -7 -17q-5 -7 -14 -13t-26 -8q-18 -2 -36.5 -2.5t-34.5 2.5t-28 11.5t-15 25.5q-1 6 -1 44t0.5 91.5
t1.5 115.5t2.5 116t3 92t2.5 45q-2 7 2 12q2 5 9 8.5t21 4.5q13 1 31.5 1.5t35.5 -0.5t29 -5t13 -13l1 -65q33 29 71 45t76.5 16t75 -17.5t67.5 -55.5z" />
    <glyph glyph-name="n" unicode="n" horiz-adv-x="601" 
d="M186 507q38 16 84.5 23.5t92.5 2t86.5 -26.5t66.5 -62q22 -35 33 -86.5t11 -126.5l-2 -163q0 -8 -1 -19t-6 -22t-15 -19.5t-27 -10.5q-27 -4 -57 -2.5t-46 22.5q-9 12 -12.5 31t-4 41t1 43.5t3.5 37.5q4 35 7 68t-2 64q-6 33 -23 56.5t-39.5 34t-47 8t-46 -20
t-36.5 -51.5t-18 -85l3 -210q-2 -9 -7 -17q-5 -7 -14.5 -12.5t-26.5 -7.5q-18 -2 -36.5 -2.5t-35 3t-27.5 12t-14 24.5q-2 6 -2 43.5t1.5 91t3.5 114.5t4 114.5t4 91t2 44.5q-1 6 3 11q3 5 10 8.5t21 4.5q13 1 31.5 1.5t35.5 -0.5t29 -5t12 -13v-33v0z" />
    <glyph glyph-name="o" unicode="o" horiz-adv-x="548" 
d="M273 -7q-52 0 -97.5 22t-79.5 59.5t-54 87.5t-20 107t20 107t54 87.5t79.5 59t97.5 21.5t97.5 -21.5t79.5 -59t54 -87.5t20 -107t-20 -107t-54 -87.5t-79.5 -59.5t-97.5 -22zM273 396q-23 0 -42.5 -10t-33.5 -27.5t-22.5 -40.5t-8.5 -49t8.5 -49.5t22.5 -40.5t33.5 -27
t42.5 -10q22 0 42 10t34.5 27t23 40.5t8.5 49.5t-8.5 49t-23 40.5t-34.5 27.5t-42 10z" />
    <glyph glyph-name="p" unicode="p" horiz-adv-x="511" 
d="M345 504q49 -24 80.5 -61.5t45 -81.5t10 -90.5t-23 -89.5t-56 -79t-87.5 -58q-53 -22 -118 -33q-1 -6 -2 -27q-1 -18 -1 -54.5v-100.5q-1 -13 -6 -24q-5 -9 -15 -17t-27 -10q-18 -2 -37.5 -2.5t-36 4t-27.5 16.5t-12 36q-1 28 -1 78.5t0.5 113t0.5 133.5t-0.5 138.5
t-1.5 128t-3 103.5q0 16 11 26.5t31 14.5q14 2 32 5t35 3t29 -5t14 -18q1 -5 1 -8.5t1 -6.5q38 3 80 -5t84 -29zM192 156q39 4 67.5 23t44 45.5t17.5 56t-11.5 55t-43 42t-76.5 17.5q0 -56 0.5 -112.5t1.5 -120.5v-3v-3z" />
    <glyph glyph-name="q" unicode="q" horiz-adv-x="511" 
d="M373 544q14 0 32.5 -0.5t35 -3.5t28 -10t11.5 -20q-10 -183 -11 -363.5t-4 -363.5q-2 -13 -7 -24q-5 -9 -15 -16.5t-27 -9.5q-18 -2 -38 -2t-37.5 5t-30 17.5t-15.5 36.5q-1 9 -0.5 30t1 52t2.5 69.5t4 81.5q-29 0 -59 4t-59 14q-53 18 -89 58t-52 91t-10.5 106.5
t37.5 105.5q39 60 109.5 90.5t162.5 35.5q4 7 10.5 12t20.5 4zM327 386q-45 6 -76 -9t-47.5 -40t-18 -54.5t12 -53.5t42 -38t73.5 -7q3 57 7 108.5t7 93.5z" />
    <glyph glyph-name="r" unicode="r" horiz-adv-x="499" 
d="M460 410q4 -29 -1.5 -55.5t-20 -46t-39 -30.5t-58.5 -8q-29 4 -35.5 25.5t-2.5 48.5q4 34 3 57q-2 31 -19.5 36.5t-38.5 -12.5t-38 -60.5t-17 -107.5l3 -226q-2 -10 -7 -17t-14.5 -12t-26.5 -7q-18 -2 -36.5 -2.5t-34.5 2.5t-27.5 11t-15.5 25q-2 8 -2 33t0.5 61
t1.5 79.5t3 87.5q4 103 10 228q-1 6 3 11q3 4 9.5 7.5t20.5 4.5q13 1 31.5 1.5t35 -0.5t28.5 -5t13 -13l1 -19q33 23 75 33t85 -1q51 -14 78 -47.5t33 -81.5z" />
    <glyph glyph-name="s" unicode="s" horiz-adv-x="486" 
d="M325 401q0 25 -12.5 40.5t-30 23t-37 8t-32.5 -4.5q-17 -6 -22 -15t-2 -18.5t11 -18t18 -13.5q12 -6 27 -12.5t29 -11.5t25 -9.5t17 -7.5q40 -18 70.5 -45.5t47.5 -63.5q16 -35 16.5 -69t-11 -64.5t-33.5 -56t-50 -43.5q-35 -22 -73.5 -29.5t-75.5 -2t-71.5 23
t-62.5 45.5q-18 18 -28.5 40.5t-12.5 46t4 46.5t23 41q3 5 8 8q14 12 29.5 9t22.5 -25q15 -42 45.5 -69t73.5 -29q14 -1 27 3.5t22 13t12.5 21.5t-2.5 30q-6 18 -26.5 31t-45.5 22.5t-50 17.5t-40 15q-38 18 -67.5 44.5t-37.5 70.5q-6 35 4.5 70.5t35.5 61.5q19 19 42.5 32
t48 20.5t48.5 10t44 2.5q37 0 71.5 -10.5t61 -30t42 -47.5t14.5 -64q0 -14 -8 -25.5t-21 -20t-29 -12.5t-34 -4q-11 0 -18 5t-7 19z" />
    <glyph glyph-name="t" unicode="t" horiz-adv-x="434" 
d="M243 149q7 -17 18 -25t24.5 -9t28.5 2.5t31 9.5q52 19 59 -35q4 -26 -2.5 -52t-20.5 -40q-26 -26 -60 -33t-66 -2q-43 6 -74.5 27t-52.5 52.5t-33 70t-16 78.5q-4 39 -3 79.5t3 88.5q-5 0 -8.5 0.5t-7.5 0.5q-21 2 -28 10.5t-11 31.5q-2 16 -2.5 34t0.5 33t3.5 24.5
t6.5 9.5q15 1 30.5 1h31.5q2 57 4.5 107t6.5 101q1 14 12 22t27 10q13 1 31.5 1.5t35 -1.5t28.5 -9.5t13 -22.5q1 -55 -2.5 -107.5t-6.5 -103.5q32 -1 64.5 -1.5t65.5 -1.5q6 -2 11 -8q5 -5 8 -15.5t4 -27.5t1 -35.5t-2.5 -34.5t-8.5 -27t-17 -14q-10 -2 -48.5 1t-87.5 8
q0 -19 -1.5 -45t-1.5 -54t2.5 -54t10.5 -45z" />
    <glyph glyph-name="u" unicode="u" horiz-adv-x="561" 
d="M529 521q-10 -122 -13 -243t0 -244q-1 -9 -6 -16q-5 -6 -15 -12.5t-27 -8.5q-16 -2 -33.5 -3t-33 1.5t-27.5 9.5t-16 21q-77 -39 -136.5 -29t-100.5 51t-62.5 103t-22.5 128q-1 58 4 117t19 118q3 15 13 25t27 9q14 -1 32.5 -3t34.5 -6.5t27 -12.5t10 -22
q-8 -44 -12.5 -89t-4.5 -94q0 -66 15.5 -107.5t38 -57.5t47.5 -4.5t45 51.5q19 38 27.5 77.5t12 80.5t4.5 82.5t6 83.5q1 7 6 12q9 11 35 10q13 -1 31.5 -2t35 -4t28 -8t11.5 -14z" />
    <glyph glyph-name="v" unicode="v" horiz-adv-x="576" 
d="M449 549q45 2 70.5 -14t28.5 -51q1 -8 0.5 -16.5t-1.5 -17.5q-3 -30 -13 -76t-26.5 -97t-39.5 -102t-53.5 -92t-68 -66.5t-82.5 -25.5q-41 0 -73 19.5t-56 52.5q-34 46 -55.5 98.5t-34 108.5t-17.5 114.5t-6 115.5q-1 7 2 15t8.5 15t13 12t16.5 5q14 1 32.5 2.5t35.5 -1
t29 -10.5t14 -26q2 -73 11 -148t38 -154q11 -30 22.5 -49t20.5 -18q8 1 17 13t18.5 32t19 45.5t18.5 54.5q17 55 28.5 110.5t22.5 95.5q8 25 18.5 40t41.5 15z" />
    <glyph glyph-name="w" unicode="w" horiz-adv-x="857" 
d="M816 523q8 -60 13 -120.5t0 -125.5q-2 -38 -11 -76t-26 -72.5t-43 -63.5t-63 -48q-34 -18 -71.5 -23.5t-74 2t-68 27.5t-53.5 53q-30 -30 -65 -51t-73.5 -27.5t-78.5 3.5t-79 42q-44 36 -66 91t-29 117.5t-1.5 127t16.5 118.5q2 10 5 19.5t6 18.5q5 8 13 14t22 4
q13 -2 31 -4.5t34 -7.5t26.5 -14.5t8.5 -25.5q-8 -57 -13 -109.5t-2 -102.5q7 -75 30 -106t49 -26t47.5 41.5t25.5 95.5q3 25 4 50.5t2 51.5q0 20 9.5 33.5t24 21t32.5 10t35 1.5l18 -2t17 -4q16 -7 27 -21.5t15 -43.5q2 -21 2.5 -43t1.5 -45q3 -67 21 -105t42 -48t50 7.5
t44 61.5q14 32 18 67t2.5 71t-6.5 72t-10 70q-3 14 3.5 28.5t23.5 17.5q13 3 31.5 6.5t35.5 2.5t30.5 -7.5t16.5 -23.5z" />
    <glyph glyph-name="x" unicode="x" horiz-adv-x="578" 
d="M546 99q6 -8 7 -18q1 -8 -2.5 -19.5t-15.5 -23.5t-26 -23.5t-29 -18.5t-30 -6t-30 14q-8 6 -27.5 29t-45.5 58q-13 17 -27.5 36.5t-30.5 39.5q-30 -33 -56.5 -62.5t-46.5 -51.5q-24 -26 -44 -48q-5 -5 -12 -8q-6 -2 -14 -1.5t-19 8.5q-11 7 -25.5 18t-26.5 22.5
t-17.5 22.5t0.5 20l170 206q-26 36 -48 68.5t-39 57.5q-19 29 -35 54q-5 6 -6 13q-1 6 2 13t14 15t26 18.5t29.5 18.5t27 10.5t19.5 -5.5q27 -37 54 -72.5t54 -71.5l109 130q7 6 17 10q8 3 20 2.5t26 -9.5q15 -9 30 -20t25 -23.5t12.5 -27.5t-7.5 -32q-4 -6 -15.5 -21
t-29.5 -35.5t-40.5 -46t-47.5 -53.5q38 -47 75.5 -93.5t75.5 -93.5z" />
    <glyph glyph-name="y" unicode="y" horiz-adv-x="563" 
d="M418 553q14 1 32.5 1.5t35 -2.5t28.5 -11t13 -25q1 -126 1.5 -216t0 -151.5t-1 -100t-2.5 -61.5t-4.5 -36t-5.5 -24q-10 -32 -27 -61t-41 -52t-55.5 -39.5t-69.5 -23.5q-49 -8 -104.5 -2.5t-104.5 33.5q-20 11 -25.5 36.5t0.5 50.5t22.5 42.5t40.5 13.5q22 -8 56.5 -15.5
t68.5 -5t61.5 20.5t36.5 61q3 17 4 36.5t0.5 40t-1 41.5t0.5 40q-35 -39 -78 -51t-86 -3q-59 13 -96.5 46t-57.5 78.5t-26 99.5t-1 109q2 26 5 51t6 49q3 8 9 14q5 5 14 9.5t23 3.5q13 -1 31.5 -1.5t35 -3.5t28 -9t11.5 -17q-2 -24 -5 -49t-5.5 -50.5t-3 -51t3.5 -50.5
q5 -43 21 -65.5t37.5 -28.5t45 3t43.5 29t33.5 49t15.5 64q1 31 1.5 56.5t1.5 43.5q1 21 1 38q-2 12 2 22q2 8 9 15t21 9z" />
    <glyph glyph-name="z" unicode="z" horiz-adv-x="475" 
d="M430 541q6 -1 10.5 -11t6.5 -25.5t2 -33t-1 -33t-3.5 -27.5t-5.5 -15q-56 -60 -105 -122.5t-98 -128.5l170 1q7 -2 12 -7t9 -14.5t6 -26.5q1 -17 1.5 -33.5t-1.5 -30t-8.5 -22.5t-18.5 -12q-6 -2 -25 -2.5t-45.5 -0.5t-58.5 0.5t-65 1.5q-77 2 -169 6q-4 -1 -8 3
q-3 3 -6 9.5t-3 20.5q-1 20 -2 48t4 45q45 73 102 138.5t121 131.5q-45 0 -88.5 -0.5t-87.5 -1.5q-8 2 -13 7t-9 14.5t-6 26.5q-2 18 -2.5 36t1 34t7.5 27.5t18 14.5q5 1 32 0.5t65 -2t82 -3.5t82.5 -4.5t65.5 -4.5t32 -4z" />
    <glyph glyph-name="Agrave" unicode="&#xc0;" 
d="M231 970q26 -18 48.5 -33.5t44.5 -30.5t44 -31t47 -35l4 -8q1 -4 1 -9.5t-5 -13.5q-9 -15 -21 -28t-28 -6q-26 18 -47 34.5t-41.5 33t-41 34t-44.5 35.5q-2 1 -3 4q-1 2 -1 6t4 10t9.5 13.5t11 14t10.5 10t8 0.5zM416 727q38 -22 65 -54t45.5 -70t29.5 -80.5t17 -85.5
q14 -85 16 -172t-3 -175q-2 -25 -4 -41t-7.5 -26t-15.5 -16t-28 -11q-17 -2 -35.5 -3t-34.5 10q-15 10 -25 34t-11 69v10q-25 3 -59.5 5t-70.5 2.5t-69.5 0.5h-56.5q-1 -9 -2.5 -30t-6.5 -42t-13.5 -38t-23.5 -18q-14 -1 -32 -2t-35 4q-17 4 -28.5 16t-12.5 38q0 31 1 71
t4 87q2 39 6.5 85.5t13 95.5t22 98t34 93t48.5 81t67 62q46 29 101 29t104 -27zM173 272q63 5 125.5 7.5t125.5 0.5q3 71 -6 127t-25 94.5t-38 59t-45 20.5q-20 0 -41.5 -20.5t-40 -60t-33.5 -97.5t-22 -131z" />
    <glyph glyph-name="Aacute" unicode="&#xc1;" 
d="M378 970q4 3 9 -0.5t10.5 -10t11 -14t9.5 -13.5q5 -10 3 -16q-1 -3 -3 -4q-24 -18 -44.5 -35t-41 -33.5t-41.5 -33.5t-46 -35q-16 -7 -28 6t-22 28q-9 14 -5 23q1 4 5 8q25 19 47 35t44 31t44 30.5t48 33.5zM416 727q38 -22 65 -54t45.5 -70t29.5 -80.5t17 -85.5
q14 -85 16 -172t-3 -175q-2 -25 -4 -41t-7.5 -26t-15.5 -16t-28 -11q-17 -2 -35.5 -3t-34.5 10q-15 10 -25 34t-11 69v10q-25 3 -59.5 5t-70.5 2.5t-69.5 0.5h-56.5q-1 -9 -2.5 -30t-6.5 -42t-13.5 -38t-23.5 -18q-14 -1 -32 -2t-35 4q-17 4 -28.5 16t-12.5 38q0 31 1 71
t4 87q2 39 6.5 85.5t13 95.5t22 98t34 93t48.5 81t67 62q46 29 101 29t104 -27zM173 272q63 5 125.5 7.5t125.5 0.5q3 71 -6 127t-25 94.5t-38 59t-45 20.5q-20 0 -41.5 -20.5t-40 -60t-33.5 -97.5t-22 -131z" />
    <glyph glyph-name="Acircumflex" unicode="&#xc2;" 
d="M451 829q0 -4 -1 -8q-2 -4 -4.5 -8.5t-10.5 -9.5q-15 -10 -31 -18t-25 1q-2 3 -6 12l-10 22.5t-12.5 30t-13.5 32.5q-12 -17 -25.5 -34.5t-24.5 -31.5q-13 -17 -25 -32q-8 -7 -25.5 -3t-34.5 13t-27.5 21t-5.5 22l100 161q26 1 48 1q18 0 34 -1.5t18 -3.5zM416 727
q38 -22 65 -54t45.5 -70t29.5 -80.5t17 -85.5q14 -85 16 -172t-3 -175q-2 -25 -4 -41t-7.5 -26t-15.5 -16t-28 -11q-17 -2 -35.5 -3t-34.5 10q-15 10 -25 34t-11 69v10q-25 3 -59.5 5t-70.5 2.5t-69.5 0.5h-56.5q-1 -9 -2.5 -30t-6.5 -42t-13.5 -38t-23.5 -18q-14 -1 -32 -2
t-35 4q-17 4 -28.5 16t-12.5 38q0 31 1 71t4 87q2 39 6.5 85.5t13 95.5t22 98t34 93t48.5 81t67 62q46 29 101 29t104 -27zM173 272q63 5 125.5 7.5t125.5 0.5q3 71 -6 127t-25 94.5t-38 59t-45 20.5q-20 0 -41.5 -20.5t-40 -60t-33.5 -97.5t-22 -131z" />
    <glyph glyph-name="Atilde" unicode="&#xc3;" 
d="M159 832q7 34 21.5 67t40.5 53q23 17 50.5 16t46.5 -29q8 -13 12 -26t12 -27q7 -13 16.5 -6t11.5 32q0 12 9.5 17.5t19.5 5.5q26 0 41 -8t14 -33q-1 -30 -12 -56.5t-33 -39.5q-24 -14 -53.5 -12t-46.5 21q-11 12 -19.5 25.5t-19.5 24.5q-7 7 -12.5 5.5t-10 -7.5
t-7.5 -15.5t-6 -18.5q-2 -6 -5 -10t-6 -6q-5 -3 -16 -2.5t-22 4.5t-19.5 10.5t-6.5 14.5zM416 727q38 -22 65 -54t45.5 -70t29.5 -80.5t17 -85.5q14 -85 16 -172t-3 -175q-2 -25 -4 -41t-7.5 -26t-15.5 -16t-28 -11q-17 -2 -35.5 -3t-34.5 10q-15 10 -25 34t-11 69v10
q-25 3 -59.5 5t-70.5 2.5t-69.5 0.5h-56.5q-1 -9 -2.5 -30t-6.5 -42t-13.5 -38t-23.5 -18q-14 -1 -32 -2t-35 4q-17 4 -28.5 16t-12.5 38q0 31 1 71t4 87q2 39 6.5 85.5t13 95.5t22 98t34 93t48.5 81t67 62q46 29 101 29t104 -27zM173 272q63 5 125.5 7.5t125.5 0.5
q3 71 -6 127t-25 94.5t-38 59t-45 20.5q-20 0 -41.5 -20.5t-40 -60t-33.5 -97.5t-22 -131z" />
    <glyph glyph-name="Adieresis" unicode="&#xc4;" 
d="M294 864q0 -26 -19 -45t-46 -19t-46 19t-19 45q0 27 19 46.5t46 19.5t46 -19.5t19 -46.5zM447 864q0 -26 -19 -45t-46 -19t-46 19t-19 45q0 27 19 46.5t46 19.5t46 -19.5t19 -46.5zM416 727q38 -22 65 -54t45.5 -70t29.5 -80.5t17 -85.5q14 -85 16 -172t-3 -175
q-2 -25 -4 -41t-7.5 -26t-15.5 -16t-28 -11q-17 -2 -35.5 -3t-34.5 10q-15 10 -25 34t-11 69v10q-25 3 -59.5 5t-70.5 2.5t-69.5 0.5h-56.5q-1 -9 -2.5 -30t-6.5 -42t-13.5 -38t-23.5 -18q-14 -1 -32 -2t-35 4q-17 4 -28.5 16t-12.5 38q0 31 1 71t4 87q2 39 6.5 85.5
t13 95.5t22 98t34 93t48.5 81t67 62q46 29 101 29t104 -27zM173 272q63 5 125.5 7.5t125.5 0.5q3 71 -6 127t-25 94.5t-38 59t-45 20.5q-20 0 -41.5 -20.5t-40 -60t-33.5 -97.5t-22 -131z" />
    <glyph glyph-name="Aring" unicode="&#xc5;" 
d="M305 785q-20 0 -38 8t-31.5 21.5t-21 31.5t-7.5 38q0 41 28.5 69.5t69.5 28.5q42 0 70.5 -28.5t28.5 -69.5q0 -20 -7.5 -38t-21 -31.5t-31.5 -21.5t-39 -8zM305 914q-12 0 -21 -8.5t-9 -21.5t9 -22t21 -9q13 0 22 9t9 22t-9 21.5t-22 8.5zM416 727q38 -22 65 -54
t45.5 -70t29.5 -80.5t17 -85.5q14 -85 16 -172t-3 -175q-2 -25 -4 -41t-7.5 -26t-15.5 -16t-28 -11q-17 -2 -35.5 -3t-34.5 10q-15 10 -25 34t-11 69v10q-25 3 -59.5 5t-70.5 2.5t-69.5 0.5h-56.5q-1 -9 -2.5 -30t-6.5 -42t-13.5 -38t-23.5 -18q-14 -1 -32 -2t-35 4
q-17 4 -28.5 16t-12.5 38q0 31 1 71t4 87q2 39 6.5 85.5t13 95.5t22 98t34 93t48.5 81t67 62q46 29 101 29t104 -27zM173 272q63 5 125.5 7.5t125.5 0.5q3 71 -6 127t-25 94.5t-38 59t-45 20.5q-20 0 -41.5 -20.5t-40 -60t-33.5 -97.5t-22 -131z" />
    <glyph glyph-name="AE" unicode="&#xc6;" horiz-adv-x="801" 
d="M726 153q29 0 37 -10.5t6 -42.5q-1 -18 -2.5 -36.5t-5.5 -34t-10 -26.5t-16 -14q-5 -2 -20 -0.5t-36 3.5q-59 5 -118.5 5t-125.5 -5q-16 -2 -32 -2t-31 4.5t-27 14.5t-19 30q-3 8 -5 30.5t-4 53.5q-41 2 -80 1.5t-65 -0.5q-1 -9 -2.5 -30t-6.5 -42t-13.5 -38t-23.5 -18
q-14 -1 -32 -2t-35 4q-17 4 -28.5 16t-12.5 38q0 31 1 71t4 87q2 39 6.5 85.5t13 95.5t22 98t34 93t48.5 81t67 62q35 21 75 27t80 -5q6 1 12 1.5t13 0.5q40 2 85 3.5t90.5 2.5t89.5 1h83q3 -1 6 -3q6 -4 11 -13q6 -11 8.5 -33t1 -45.5t-8.5 -43t-19 -25.5q-5 -1 -21.5 -1
t-39 0.5t-50 2t-54 3t-51 2.5t-41.5 1l-4 -160l186 1q19 -3 26 -25t6.5 -48.5t-8 -49t-17.5 -26.5q-5 -2 -26.5 -1.5t-50.5 1.5t-61 2.5t-57 3.5q-1 -39 -0.5 -77t2.5 -76q26 3 57 4.5t63.5 2.5t65 1t60.5 -1zM317 280q0 75 1 150t4 150q-2 0 -4.5 0.5t-4.5 0.5
q-20 0 -41.5 -20.5t-40 -60t-33.5 -97.5t-22 -131q35 3 70.5 5t70.5 3z" />
    <glyph glyph-name="Ccedilla" unicode="&#xc7;" horiz-adv-x="554" 
d="M372 535q1 29 -9.5 43.5t-26.5 18t-34.5 -3.5t-33.5 -20q-35 -30 -56.5 -76.5t-29 -97.5t-1 -101.5t28.5 -87.5q14 -24 33.5 -35.5t41.5 -13t43.5 7t38.5 25.5q26 26 42 37t36 12q57 0 75.5 -32t2.5 -78q-13 -37 -40.5 -64t-62.5 -43.5t-75.5 -22.5t-79.5 -3
q-3 -7 -5.5 -15.5t-4.5 -19.5q25 4 48 0t40.5 -14.5t28 -28t12.5 -40.5q3 -36 -14.5 -66t-46.5 -45q-21 -11 -49 -14t-54 9q-17 8 -26.5 25t-2.5 42q5 16 18 19t26 -2q14 -6 27 -2.5t20.5 11.5t7 17.5t-12.5 15.5q-7 3 -18.5 3t-25 -1l-27 -2t-22.5 -1q-11 0 -16.5 10
t-7.5 23.5t-1 27t3 20.5q5 11 8 25t6 27q-23 11 -42 29q-28 26 -49 59.5t-35 71t-21 78t-7 81.5q2 92 39 178t98 150q28 29 66.5 49.5t79 26.5t79.5 -4t69 -42q23 -24 37 -55t21 -62q4 -20 3.5 -38t-8.5 -34q-11 -20 -34 -28.5t-45.5 -5.5t-39 17.5t-15.5 39.5z" />
    <glyph glyph-name="Egrave" unicode="&#xc8;" horiz-adv-x="513" 
d="M182 990q26 -18 48.5 -33.5t44.5 -30.5t44 -31t47 -35l4 -8q1 -4 1 -9.5t-5 -13.5q-9 -15 -21 -28t-28 -6q-26 18 -47 34.5t-41.5 33t-41 34t-44.5 35.5q-2 1 -3 4q-1 2 -1 6t4 10t9.5 13.5t11 14t10.5 10t8 0.5zM438 153q29 0 37 -10.5t6 -42.5q-1 -18 -2.5 -36.5
t-5.5 -34t-10 -26.5t-16 -14q-5 -2 -20 -0.5t-36 3.5q-59 5 -118.5 5t-125.5 -5q-16 -2 -32 -2t-31 4.5t-27 14.5t-19 30q-4 12 -6.5 48t-2.5 86q0 132 1 266t11 266q0 25 20 34.5t45 9.5q40 2 85 3.5t90.5 2.5t89.5 1h83q3 -1 6 -3q6 -4 11 -13q6 -11 8.5 -33t1 -45.5
t-8.5 -43t-19 -25.5q-5 -1 -21.5 -1t-39 0.5t-50 2t-54 3t-51 2.5t-41.5 1l-4 -160l186 1q19 -3 26 -25t6.5 -48.5t-8 -49t-17.5 -26.5q-5 -2 -26.5 -1.5t-50.5 1.5t-61 2.5t-57 3.5q-1 -39 -0.5 -77t2.5 -76q26 3 57 4.5t63.5 2.5t65 1t60.5 -1z" />
    <glyph glyph-name="Eacute" unicode="&#xc9;" horiz-adv-x="513" 
d="M329 983q4 3 9 -0.5t10.5 -10t11 -14t9.5 -13.5q5 -10 3 -16q-1 -3 -3 -4q-24 -18 -44.5 -35t-41 -33.5t-41.5 -33.5t-46 -35q-16 -7 -28 6t-22 28q-9 14 -5 23q1 4 5 8q25 19 47 35t44 31t44 30.5t48 33.5zM438 153q29 0 37 -10.5t6 -42.5q-1 -18 -2.5 -36.5t-5.5 -34
t-10 -26.5t-16 -14q-5 -2 -20 -0.5t-36 3.5q-59 5 -118.5 5t-125.5 -5q-16 -2 -32 -2t-31 4.5t-27 14.5t-19 30q-4 12 -6.5 48t-2.5 86q0 132 1 266t11 266q0 25 20 34.5t45 9.5q40 2 85 3.5t90.5 2.5t89.5 1h83q3 -1 6 -3q6 -4 11 -13q6 -11 8.5 -33t1 -45.5t-8.5 -43
t-19 -25.5q-5 -1 -21.5 -1t-39 0.5t-50 2t-54 3t-51 2.5t-41.5 1l-4 -160l186 1q19 -3 26 -25t6.5 -48.5t-8 -49t-17.5 -26.5q-5 -2 -26.5 -1.5t-50.5 1.5t-61 2.5t-57 3.5q-1 -39 -0.5 -77t2.5 -76q26 3 57 4.5t63.5 2.5t65 1t60.5 -1z" />
    <glyph glyph-name="Ecircumflex" unicode="&#xca;" horiz-adv-x="513" 
d="M402 831q0 -4 -1 -8q-2 -4 -4.5 -8.5t-10.5 -9.5q-15 -10 -31 -18t-25 1q-2 3 -6 12l-10 22.5t-12.5 30t-13.5 32.5q-12 -17 -25.5 -34.5t-24.5 -31.5q-13 -17 -25 -32q-8 -7 -25.5 -3t-34.5 13t-27.5 21t-5.5 22l100 161q26 1 48 1q18 0 34 -1.5t18 -3.5zM438 153
q29 0 37 -10.5t6 -42.5q-1 -18 -2.5 -36.5t-5.5 -34t-10 -26.5t-16 -14q-5 -2 -20 -0.5t-36 3.5q-59 5 -118.5 5t-125.5 -5q-16 -2 -32 -2t-31 4.5t-27 14.5t-19 30q-4 12 -6.5 48t-2.5 86q0 132 1 266t11 266q0 25 20 34.5t45 9.5q40 2 85 3.5t90.5 2.5t89.5 1h83
q3 -1 6 -3q6 -4 11 -13q6 -11 8.5 -33t1 -45.5t-8.5 -43t-19 -25.5q-5 -1 -21.5 -1t-39 0.5t-50 2t-54 3t-51 2.5t-41.5 1l-4 -160l186 1q19 -3 26 -25t6.5 -48.5t-8 -49t-17.5 -26.5q-5 -2 -26.5 -1.5t-50.5 1.5t-61 2.5t-57 3.5q-1 -39 -0.5 -77t2.5 -76q26 3 57 4.5
t63.5 2.5t65 1t60.5 -1z" />
    <glyph glyph-name="Edieresis" unicode="&#xcb;" horiz-adv-x="513" 
d="M245 852q0 -26 -19 -45t-46 -19t-46 19t-19 45q0 27 19 46.5t46 19.5t46 -19.5t19 -46.5zM398 852q0 -26 -19 -45t-46 -19t-46 19t-19 45q0 27 19 46.5t46 19.5t46 -19.5t19 -46.5zM438 153q29 0 37 -10.5t6 -42.5q-1 -18 -2.5 -36.5t-5.5 -34t-10 -26.5t-16 -14
q-5 -2 -20 -0.5t-36 3.5q-59 5 -118.5 5t-125.5 -5q-16 -2 -32 -2t-31 4.5t-27 14.5t-19 30q-4 12 -6.5 48t-2.5 86q0 132 1 266t11 266q0 25 20 34.5t45 9.5q40 2 85 3.5t90.5 2.5t89.5 1h83q3 -1 6 -3q6 -4 11 -13q6 -11 8.5 -33t1 -45.5t-8.5 -43t-19 -25.5
q-5 -1 -21.5 -1t-39 0.5t-50 2t-54 3t-51 2.5t-41.5 1l-4 -160l186 1q19 -3 26 -25t6.5 -48.5t-8 -49t-17.5 -26.5q-5 -2 -26.5 -1.5t-50.5 1.5t-61 2.5t-57 3.5q-1 -39 -0.5 -77t2.5 -76q26 3 57 4.5t63.5 2.5t65 1t60.5 -1z" />
    <glyph glyph-name="Igrave" unicode="&#xcc;" horiz-adv-x="221" 
d="M47 983q26 -18 48.5 -33.5t44.5 -30.5t44 -31t47 -35l4 -8q1 -4 1 -9.5t-5 -13.5q-9 -15 -21 -28t-28 -6q-26 18 -47 34.5t-41.5 33t-41 34t-44.5 35.5q-2 1 -3 4q-1 2 -1 6t4 10t9.5 13.5t11 14t10.5 10t8 0.5zM190 44q-2 -12 -7 -22q-5 -8 -15 -15.5t-27 -9.5
q-18 -2 -36.5 -3t-34.5 3.5t-27.5 16t-14.5 34.5q-2 11 -1.5 46t1.5 84t3 108t4 119q5 141 13 312q-2 9 2 16q2 6 9 10.5t21 5.5q14 0 32.5 0.5t35.5 -1.5t29 -8t12 -18z" />
    <glyph glyph-name="Iacute" unicode="&#xcd;" horiz-adv-x="221" 
d="M184 970q4 3 9 -0.5t10.5 -10t11 -14t9.5 -13.5q5 -10 3 -16q-1 -3 -3 -4q-24 -18 -44.5 -35t-41 -33.5t-41.5 -33.5t-46 -35q-16 -7 -28 6t-22 28q-9 14 -5 23q1 4 5 8q25 19 47 35t44 31t44 30.5t48 33.5zM190 44q-2 -12 -7 -22q-5 -8 -15 -15.5t-27 -9.5
q-18 -2 -36.5 -3t-34.5 3.5t-27.5 16t-14.5 34.5q-2 11 -1.5 46t1.5 84t3 108t4 119q5 141 13 312q-2 9 2 16q2 6 9 10.5t21 5.5q14 0 32.5 0.5t35.5 -1.5t29 -8t12 -18z" />
    <glyph glyph-name="Icircumflex" unicode="&#xce;" horiz-adv-x="221" 
d="M257 823q0 -4 -1 -8q-2 -4 -4.5 -8.5t-10.5 -9.5q-15 -10 -31 -18t-25 1q-2 3 -6 12l-10 22.5t-12.5 30t-13.5 32.5q-12 -17 -25.5 -34.5t-24.5 -31.5q-13 -17 -25 -32q-8 -7 -25.5 -3t-34.5 13t-27.5 21t-5.5 22l100 161q26 1 48 1q18 0 34 -1.5t18 -3.5zM190 44
q-2 -12 -7 -22q-5 -8 -15 -15.5t-27 -9.5q-18 -2 -36.5 -3t-34.5 3.5t-27.5 16t-14.5 34.5q-2 11 -1.5 46t1.5 84t3 108t4 119q5 141 13 312q-2 9 2 16q2 6 9 10.5t21 5.5q14 0 32.5 0.5t35.5 -1.5t29 -8t12 -18z" />
    <glyph glyph-name="Idieresis" unicode="&#xcf;" horiz-adv-x="221" 
d="M108 847q0 -26 -19 -45t-46 -19t-46 19t-19 45q0 27 19 46.5t46 19.5t46 -19.5t19 -46.5zM261 847q0 -26 -19 -45t-46 -19t-46 19t-19 45q0 27 19 46.5t46 19.5t46 -19.5t19 -46.5zM190 44q-2 -12 -7 -22q-5 -8 -15 -15.5t-27 -9.5q-18 -2 -36.5 -3t-34.5 3.5t-27.5 16
t-14.5 34.5q-2 11 -1.5 46t1.5 84t3 108t4 119q5 141 13 312q-2 9 2 16q2 6 9 10.5t21 5.5q14 0 32.5 0.5t35.5 -1.5t29 -8t12 -18z" />
    <glyph glyph-name="Eth" unicode="&#xd0;" horiz-adv-x="560" 
d="M54 413q1 74 1.5 147.5t0.5 150.5q-1 8 3 15q3 6 9.5 11t20.5 7q10 1 24 2.5t28 1.5t26.5 -1.5t20.5 -6.5q77 -2 137 -28.5t103 -69.5t68 -98.5t32 -116t-4.5 -122t-41.5 -117t-80 -101t-119 -73.5q-34 -14 -72 -21t-76 -5q-29 2 -54 14t-29 45q-1 11 -1 45.5t1 82.5v81
t1 81q-4 0 -6 0.5t-4 0.5h-4q-3 -1 -6 1q-2 2 -4.5 5t-3.5 11q-1 7 -1.5 17t-0.5 19t2.5 15.5t7.5 6.5h21zM213 163q53 20 89.5 56t56 79.5t20.5 89.5t-17.5 87t-57.5 72.5t-100 44.5q2 -45 3 -89t2 -89h54t54 -1q5 -1 9 -4q3 -2 6 -7.5t3 -14.5q1 -20 -1.5 -38.5
t-21.5 -21.5q-7 -1 -35.5 0.5t-65.5 3.5z" />
    <glyph glyph-name="Ntilde" unicode="&#xd1;" horiz-adv-x="643" 
d="M175 828q7 34 21.5 67t40.5 53q23 17 50.5 16t46.5 -29q8 -13 12 -26t12 -27q7 -13 16.5 -6t11.5 32q0 12 9.5 17.5t19.5 5.5q26 0 41 -8t14 -33q-1 -30 -12 -56.5t-33 -39.5q-24 -14 -53.5 -12t-46.5 21q-11 12 -19.5 25.5t-19.5 24.5q-7 7 -12.5 5.5t-10 -7.5
t-7.5 -15.5t-6 -18.5q-2 -6 -5 -10t-6 -6q-5 -3 -16 -2.5t-22 4.5t-19.5 10.5t-6.5 14.5zM617 695q1 -11 1 -45.5t-0.5 -83.5t-2 -107.5t-3.5 -117.5q-4 -139 -11 -308q1 -9 -3 -16q-3 -6 -10.5 -11t-21.5 -5q-15 0 -35 -1.5t-40.5 -0.5t-38 7.5t-28.5 22.5
q-8 10 -28.5 43.5t-44.5 80.5q-40 77 -81 153.5t-83 158.5l7 -419q-1 -12 -6 -22q-5 -9 -14.5 -17t-26.5 -10q-18 -2 -36.5 -3t-35 3t-28 15t-14.5 34q-2 11 -2.5 46t-0.5 84t1 108t2 119q3 141 7 312q-1 9 3 16q3 6 9.5 11t20.5 6q8 1 27.5 2t40 1t37.5 -3t21 -10
q65 -107 127.5 -214t123.5 -216l5 392q1 12 7 22q5 8 15 16t28 10q18 1 36.5 1.5t34.5 -4t27 -16t14 -34.5z" />
    <glyph glyph-name="Ograve" unicode="&#xd2;" horiz-adv-x="675" 
d="M263 968q26 -18 48.5 -33.5t44.5 -30.5t44 -31t47 -35l4 -8q1 -4 1 -9.5t-5 -13.5q-9 -15 -21 -28t-28 -6q-26 18 -47 34.5t-41.5 33t-41 34t-44.5 35.5q-2 1 -3 4q-1 2 -1 6t4 10t9.5 13.5t11 14t10.5 10t8 0.5zM339 -6q-64 0 -121.5 30t-101.5 87q-42 54 -63.5 121
t-21.5 139q0 75 21.5 141.5t63.5 119.5q44 57 101.5 87.5t121.5 30.5q65 0 122 -30.5t101 -87.5q42 -53 63 -119.5t21 -141.5q0 -72 -21 -139t-63 -121q-44 -57 -101 -87t-122 -30zM339 606q-33 0 -62.5 -18.5t-52 -51t-35.5 -75t-13 -90.5q0 -47 13 -89.5t35.5 -74.5
t52 -50.5t62.5 -18.5t63 18.5t52.5 50.5t35.5 74.5t13 89.5q0 48 -13 90.5t-35.5 75t-52.5 51t-63 18.5z" />
    <glyph glyph-name="Oacute" unicode="&#xd3;" horiz-adv-x="675" 
d="M410 983q4 3 9 -0.5t10.5 -10t11 -14t9.5 -13.5q5 -10 3 -16q-1 -3 -3 -4q-24 -18 -44.5 -35t-41 -33.5t-41.5 -33.5t-46 -35q-16 -7 -28 6t-22 28q-9 14 -5 23q1 4 5 8q25 19 47 35t44 31t44 30.5t48 33.5zM339 -6q-64 0 -121.5 30t-101.5 87q-42 54 -63.5 121
t-21.5 139q0 75 21.5 141.5t63.5 119.5q44 57 101.5 87.5t121.5 30.5q65 0 122 -30.5t101 -87.5q42 -53 63 -119.5t21 -141.5q0 -72 -21 -139t-63 -121q-44 -57 -101 -87t-122 -30zM339 606q-33 0 -62.5 -18.5t-52 -51t-35.5 -75t-13 -90.5q0 -47 13 -89.5t35.5 -74.5
t52 -50.5t62.5 -18.5t63 18.5t52.5 50.5t35.5 74.5t13 89.5q0 48 -13 90.5t-35.5 75t-52.5 51t-63 18.5z" />
    <glyph glyph-name="Ocircumflex" unicode="&#xd4;" horiz-adv-x="675" 
d="M483 822q0 -4 -1 -8q-2 -4 -4.5 -8.5t-10.5 -9.5q-15 -10 -31 -18t-25 1q-2 3 -6 12l-10 22.5t-12.5 30t-13.5 32.5q-12 -17 -25.5 -34.5t-24.5 -31.5q-13 -17 -25 -32q-8 -7 -25.5 -3t-34.5 13t-27.5 21t-5.5 22l100 161q26 1 48 1q18 0 34 -1.5t18 -3.5zM339 -6
q-64 0 -121.5 30t-101.5 87q-42 54 -63.5 121t-21.5 139q0 75 21.5 141.5t63.5 119.5q44 57 101.5 87.5t121.5 30.5q65 0 122 -30.5t101 -87.5q42 -53 63 -119.5t21 -141.5q0 -72 -21 -139t-63 -121q-44 -57 -101 -87t-122 -30zM339 606q-33 0 -62.5 -18.5t-52 -51
t-35.5 -75t-13 -90.5q0 -47 13 -89.5t35.5 -74.5t52 -50.5t62.5 -18.5t63 18.5t52.5 50.5t35.5 74.5t13 89.5q0 48 -13 90.5t-35.5 75t-52.5 51t-63 18.5z" />
    <glyph glyph-name="Otilde" unicode="&#xd5;" horiz-adv-x="675" 
d="M191 831q7 34 21.5 67t40.5 53q23 17 50.5 16t46.5 -29q8 -13 12 -26t12 -27q7 -13 16.5 -6t11.5 32q0 12 9.5 17.5t19.5 5.5q26 0 41 -8t14 -33q-1 -30 -12 -56.5t-33 -39.5q-24 -14 -53.5 -12t-46.5 21q-11 12 -19.5 25.5t-19.5 24.5q-7 7 -12.5 5.5t-10 -7.5
t-7.5 -15.5t-6 -18.5q-2 -6 -5 -10t-6 -6q-5 -3 -16 -2.5t-22 4.5t-19.5 10.5t-6.5 14.5zM339 -6q-64 0 -121.5 30t-101.5 87q-42 54 -63.5 121t-21.5 139q0 75 21.5 141.5t63.5 119.5q44 57 101.5 87.5t121.5 30.5q65 0 122 -30.5t101 -87.5q42 -53 63 -119.5t21 -141.5
q0 -72 -21 -139t-63 -121q-44 -57 -101 -87t-122 -30zM339 606q-33 0 -62.5 -18.5t-52 -51t-35.5 -75t-13 -90.5q0 -47 13 -89.5t35.5 -74.5t52 -50.5t62.5 -18.5t63 18.5t52.5 50.5t35.5 74.5t13 89.5q0 48 -13 90.5t-35.5 75t-52.5 51t-63 18.5z" />
    <glyph glyph-name="Odieresis" unicode="&#xd6;" horiz-adv-x="675" 
d="M326 839q0 -26 -19 -45t-46 -19t-46 19t-19 45q0 27 19 46.5t46 19.5t46 -19.5t19 -46.5zM479 839q0 -26 -19 -45t-46 -19t-46 19t-19 45q0 27 19 46.5t46 19.5t46 -19.5t19 -46.5zM339 -6q-64 0 -121.5 30t-101.5 87q-42 54 -63.5 121t-21.5 139q0 75 21.5 141.5
t63.5 119.5q44 57 101.5 87.5t121.5 30.5q65 0 122 -30.5t101 -87.5q42 -53 63 -119.5t21 -141.5q0 -72 -21 -139t-63 -121q-44 -57 -101 -87t-122 -30zM339 606q-33 0 -62.5 -18.5t-52 -51t-35.5 -75t-13 -90.5q0 -47 13 -89.5t35.5 -74.5t52 -50.5t62.5 -18.5t63 18.5
t52.5 50.5t35.5 74.5t13 89.5q0 48 -13 90.5t-35.5 75t-52.5 51t-63 18.5z" />
    <glyph glyph-name="multiply" unicode="&#xd7;" horiz-adv-x="475" 
d="M411 201q-10 -14 -21.5 -28.5t-23.5 -25t-24.5 -15.5t-23.5 1q-8 5 -28 22t-46 42q-17 -20 -34 -40.5t-33 -40.5q-5 -4 -13 -5q-7 -1 -17.5 1.5t-24.5 12.5q-15 10 -30 21.5t-26 23.5t-16 24t1 24q4 8 26 33t51 58l-80 80q-4 3 -5 8t1.5 11.5t10.5 17.5q9 11 21 25.5
t24 26.5t22 18.5t15 2.5l97 -83q17 16 31 29.5t25 23.5q12 11 23 21q3 3 8 4t11.5 -2t17.5 -12q10 -9 23.5 -21t25 -24.5t18 -23t2.5 -15.5q-18 -19 -35 -38t-35 -39l74 -63q4 -5 5 -13q1 -7 -2.5 -17.5t-14.5 -24.5z" />
    <glyph glyph-name="Oslash" unicode="&#xd8;" horiz-adv-x="675" 
d="M339 -6q-64 0 -121.5 30t-101.5 87q-42 54 -63.5 121t-21.5 139q0 75 21.5 141.5t63.5 119.5q44 57 101.5 87.5t121.5 30.5q65 0 122 -30.5t101 -87.5q42 -53 63 -119.5t21 -141.5q0 -72 -21 -139t-63 -121q-44 -57 -101 -87t-122 -30zM503 371q0 57 -18.5 106t-48.5 81
l-123 -417q13 -3 26 -3q33 0 63 18.5t52.5 50.5t35.5 74.5t13 89.5zM339 606q-33 0 -62.5 -18.5t-52 -51t-35.5 -75t-13 -90.5q0 -46 12 -86.5t33 -72.5q13 44 31 98.5l36 109t34 103.5t27 82q-3 1 -10 1z" />
    <glyph glyph-name="Ugrave" unicode="&#xd9;" horiz-adv-x="671" 
d="M261 972q26 -18 48.5 -33.5t44.5 -30.5t44 -31t47 -35l4 -8q1 -4 1 -9.5t-5 -13.5q-9 -15 -21 -28t-28 -6q-26 18 -47 34.5t-41.5 33t-41 34t-44.5 35.5q-2 1 -3 4q-1 2 -1 6t4 10t9.5 13.5t11 14t10.5 10t8 0.5zM184 499q-2 -57 -2 -106.5t10 -94.5q10 -49 31 -80
t47.5 -45.5t55 -12t55 19t47.5 46.5t31 73q10 40 14 92.5t4 106.5t-4 104.5t-8 86.5q-3 26 16 42t44.5 19.5t50 -7t32.5 -37.5q14 -46 20.5 -99t7.5 -106.5t-3 -105t-11 -95.5q-11 -59 -35 -114t-61.5 -97t-89 -67t-116.5 -23q-41 1 -77 14t-66.5 34.5t-54.5 50.5t-41 62
q-31 62 -42.5 140t-11.5 153.5t6.5 139t12.5 98.5q2 19 15 31.5t30.5 18.5t37.5 6t36.5 -6.5t27 -20t9.5 -32.5z" />
    <glyph glyph-name="Uacute" unicode="&#xda;" horiz-adv-x="671" 
d="M408 975q4 3 9 -0.5t10.5 -10t11 -14t9.5 -13.5q5 -10 3 -16q-1 -3 -3 -4q-24 -18 -44.5 -35t-41 -33.5t-41.5 -33.5t-46 -35q-16 -7 -28 6t-22 28q-9 14 -5 23q1 4 5 8q25 19 47 35t44 31t44 30.5t48 33.5zM184 499q-2 -57 -2 -106.5t10 -94.5q10 -49 31 -80t47.5 -45.5
t55 -12t55 19t47.5 46.5t31 73q10 40 14 92.5t4 106.5t-4 104.5t-8 86.5q-3 26 16 42t44.5 19.5t50 -7t32.5 -37.5q14 -46 20.5 -99t7.5 -106.5t-3 -105t-11 -95.5q-11 -59 -35 -114t-61.5 -97t-89 -67t-116.5 -23q-41 1 -77 14t-66.5 34.5t-54.5 50.5t-41 62
q-31 62 -42.5 140t-11.5 153.5t6.5 139t12.5 98.5q2 19 15 31.5t30.5 18.5t37.5 6t36.5 -6.5t27 -20t9.5 -32.5z" />
    <glyph glyph-name="Ucircumflex" unicode="&#xdb;" horiz-adv-x="671" 
d="M481 819q0 -4 -1 -8q-2 -4 -4.5 -8.5t-10.5 -9.5q-15 -10 -31 -18t-25 1q-2 3 -6 12l-10 22.5t-12.5 30t-13.5 32.5q-12 -17 -25.5 -34.5t-24.5 -31.5q-13 -17 -25 -32q-8 -7 -25.5 -3t-34.5 13t-27.5 21t-5.5 22l100 161q26 1 48 1q18 0 34 -1.5t18 -3.5zM184 499
q-2 -57 -2 -106.5t10 -94.5q10 -49 31 -80t47.5 -45.5t55 -12t55 19t47.5 46.5t31 73q10 40 14 92.5t4 106.5t-4 104.5t-8 86.5q-3 26 16 42t44.5 19.5t50 -7t32.5 -37.5q14 -46 20.5 -99t7.5 -106.5t-3 -105t-11 -95.5q-11 -59 -35 -114t-61.5 -97t-89 -67t-116.5 -23
q-41 1 -77 14t-66.5 34.5t-54.5 50.5t-41 62q-31 62 -42.5 140t-11.5 153.5t6.5 139t12.5 98.5q2 19 15 31.5t30.5 18.5t37.5 6t36.5 -6.5t27 -20t9.5 -32.5z" />
    <glyph glyph-name="Udieresis" unicode="&#xdc;" horiz-adv-x="671" 
d="M324 839q0 -26 -19 -45t-46 -19t-46 19t-19 45q0 27 19 46.5t46 19.5t46 -19.5t19 -46.5zM477 839q0 -26 -19 -45t-46 -19t-46 19t-19 45q0 27 19 46.5t46 19.5t46 -19.5t19 -46.5zM184 499q-2 -57 -2 -106.5t10 -94.5q10 -49 31 -80t47.5 -45.5t55 -12t55 19t47.5 46.5
t31 73q10 40 14 92.5t4 106.5t-4 104.5t-8 86.5q-3 26 16 42t44.5 19.5t50 -7t32.5 -37.5q14 -46 20.5 -99t7.5 -106.5t-3 -105t-11 -95.5q-11 -59 -35 -114t-61.5 -97t-89 -67t-116.5 -23q-41 1 -77 14t-66.5 34.5t-54.5 50.5t-41 62q-31 62 -42.5 140t-11.5 153.5t6.5 139
t12.5 98.5q2 19 15 31.5t30.5 18.5t37.5 6t36.5 -6.5t27 -20t9.5 -32.5z" />
    <glyph glyph-name="Yacute" unicode="&#xdd;" horiz-adv-x="563" 
d="M354 977q4 3 9 -0.5t10.5 -10t11 -14t9.5 -13.5q5 -10 3 -16q-1 -3 -3 -4q-24 -18 -44.5 -35t-41 -33.5t-41.5 -33.5t-46 -35q-16 -7 -28 6t-22 28q-9 14 -5 23q1 4 5 8q25 19 47 35t44 31t44 30.5t48 33.5zM422 748h32.5t35.5 -3t29 -10t12 -22q-1 -90 -1.5 -144.5
t-1.5 -86t-2 -48t-2 -29.5q-6 -66 -21 -126t-45 -111.5t-76.5 -92.5t-115.5 -68q-15 -5 -41 -10t-53.5 -5.5t-52.5 6.5t-38 27q-9 14 -13.5 39t-2.5 49t12 40.5t28 13.5q28 -5 65 -3.5t72 13t63.5 34t39.5 60.5q-67 -23 -119 -18.5t-89.5 31.5t-62 72t-37 102.5t-12.5 123
t10 133.5q2 16 13 27t28 8q13 -1 32 -2t35.5 -4.5t28 -10t11.5 -16.5q-1 -8 -1.5 -14.5t-1.5 -14.5q-2 -24 -4 -62t1.5 -77t16 -74t38.5 -54q20 -14 43.5 -16t45.5 10t40.5 39t27.5 71q5 23 5.5 48t-0.5 49.5t-3 47t-2 40.5q-1 11 3 19q3 7 9.5 12.5t20.5 6.5z" />
    <glyph glyph-name="germandbls" unicode="&#xdf;" horiz-adv-x="633" 
d="M528 281q29 -35 50.5 -75t21.5 -88q-1 -34 -16 -63.5t-51 -48.5q-21 -11 -46.5 -16.5t-51 -8t-50.5 -1.5t-45 3q-55 6 -73 32.5t-11 86.5q2 18 17.5 29t36.5 13q50 -4 76 -1.5t35.5 10t5 19t-16.5 25.5q-23 28 -48.5 52t-48.5 55q-27 37 -22 77t37 81q7 8 15 20.5
t17 33.5q15 34 14 64q-3 40 -26 50t-49 0q-35 -12 -57 -47t-34 -79t-17 -90.5t-6 -82.5q-2 -61 -1 -123t1 -131q0 -10 0.5 -17.5t0.5 -12.5q0 -6 1 -10v-7q0 -3 -0.5 -7t-1.5 -9q-2 -10 -8 -18t-20 -10t-32 -3.5t-35 0.5t-29.5 10.5t-14.5 27.5q-8 100 -11 200t5 202
q5 57 24.5 120t59.5 112q29 36 71.5 59t89.5 31t94.5 -1.5t86.5 -37.5q29 -21 43.5 -53t16 -67.5t-8.5 -70.5t-29 -63q-12 -17 -21.5 -29.5t-11.5 -26.5t8 -33.5t37 -50.5l28 -31v0z" />
    <glyph glyph-name="agrave" unicode="&#xe0;" horiz-adv-x="580" 
d="M299 781q26 -18 48.5 -33.5t44.5 -30.5t44 -31t47 -35l4 -8q1 -4 1 -9.5t-5 -13.5q-9 -15 -21 -28t-28 -6q-26 18 -47 34.5t-41.5 33t-41 34t-44.5 35.5q-2 1 -3 4q-1 2 -1 6t4 10t9.5 13.5t11 14t10.5 10t8 0.5zM544 516q-10 -121 -12.5 -240.5t5.5 -240.5q-1 -8 -6 -16
q-5 -7 -14.5 -13.5t-26.5 -8.5q-15 -2 -32 -4t-32 -0.5t-27 6.5t-18 16q-22 -5 -44 -9.5t-45 -6.5q-67 -6 -117.5 18t-82.5 67t-45 99t-5.5 114t36 112t79.5 93q55 38 121.5 47t133.5 -9q8 6 26 5q14 -1 32.5 -2t35 -4t27.5 -8.5t11 -14.5zM388 395q-45 18 -80 11t-59 -29.5
t-37 -55t-15 -65t7.5 -60.5t31.5 -41.5t55.5 -7t80.5 42.5q2 26 3 51.5t3 51.5q2 27 4 53t6 49z" />
    <glyph glyph-name="aacute" unicode="&#xe1;" horiz-adv-x="580" 
d="M445 782q4 3 9 -0.5t10.5 -10t11 -14t9.5 -13.5q5 -10 3 -16q-1 -3 -3 -4q-24 -18 -44.5 -35t-41 -33.5t-41.5 -33.5t-46 -35q-16 -7 -28 6t-22 28q-9 14 -5 23q1 4 5 8q25 19 47 35t44 31t44 30.5t48 33.5zM544 516q-10 -121 -12.5 -240.5t5.5 -240.5q-1 -8 -6 -16
q-5 -7 -14.5 -13.5t-26.5 -8.5q-15 -2 -32 -4t-32 -0.5t-27 6.5t-18 16q-22 -5 -44 -9.5t-45 -6.5q-67 -6 -117.5 18t-82.5 67t-45 99t-5.5 114t36 112t79.5 93q55 38 121.5 47t133.5 -9q8 6 26 5q14 -1 32.5 -2t35 -4t27.5 -8.5t11 -14.5zM388 395q-45 18 -80 11t-59 -29.5
t-37 -55t-15 -65t7.5 -60.5t31.5 -41.5t55.5 -7t80.5 42.5q2 26 3 51.5t3 51.5q2 27 4 53t6 49z" />
    <glyph glyph-name="acircumflex" unicode="&#xe2;" horiz-adv-x="580" 
d="M528 624q0 -4 -1 -8q-2 -4 -4.5 -8.5t-10.5 -9.5q-15 -10 -31 -18t-25 1q-2 3 -6 12l-10 22.5t-12.5 30t-13.5 32.5q-12 -17 -25.5 -34.5t-24.5 -31.5q-13 -17 -25 -32q-8 -7 -25.5 -3t-34.5 13t-27.5 21t-5.5 22l100 161q26 1 48 1q18 0 34 -1.5t18 -3.5zM544 516
q-10 -121 -12.5 -240.5t5.5 -240.5q-1 -8 -6 -16q-5 -7 -14.5 -13.5t-26.5 -8.5q-15 -2 -32 -4t-32 -0.5t-27 6.5t-18 16q-22 -5 -44 -9.5t-45 -6.5q-67 -6 -117.5 18t-82.5 67t-45 99t-5.5 114t36 112t79.5 93q55 38 121.5 47t133.5 -9q8 6 26 5q14 -1 32.5 -2t35 -4
t27.5 -8.5t11 -14.5zM388 395q-45 18 -80 11t-59 -29.5t-37 -55t-15 -65t7.5 -60.5t31.5 -41.5t55.5 -7t80.5 42.5q2 26 3 51.5t3 51.5q2 27 4 53t6 49z" />
    <glyph glyph-name="atilde" unicode="&#xe3;" horiz-adv-x="580" 
d="M218 634q7 34 21.5 67t40.5 53q23 17 50.5 16t46.5 -29q8 -13 12 -26t12 -27q7 -13 16.5 -6t11.5 32q0 12 9.5 17.5t19.5 5.5q26 0 41 -8t14 -33q-1 -30 -12 -56.5t-33 -39.5q-24 -14 -53.5 -12t-46.5 21q-11 12 -19.5 25.5t-19.5 24.5q-7 7 -12.5 5.5t-10 -7.5
t-7.5 -15.5t-6 -18.5q-2 -6 -5 -10t-6 -6q-5 -3 -16 -2.5t-22 4.5t-19.5 10.5t-6.5 14.5zM544 516q-10 -121 -12.5 -240.5t5.5 -240.5q-1 -8 -6 -16q-5 -7 -14.5 -13.5t-26.5 -8.5q-15 -2 -32 -4t-32 -0.5t-27 6.5t-18 16q-22 -5 -44 -9.5t-45 -6.5q-67 -6 -117.5 18
t-82.5 67t-45 99t-5.5 114t36 112t79.5 93q55 38 121.5 47t133.5 -9q8 6 26 5q14 -1 32.5 -2t35 -4t27.5 -8.5t11 -14.5zM388 395q-45 18 -80 11t-59 -29.5t-37 -55t-15 -65t7.5 -60.5t31.5 -41.5t55.5 -7t80.5 42.5q2 26 3 51.5t3 51.5q2 27 4 53t6 49z" />
    <glyph glyph-name="adieresis" unicode="&#xe4;" horiz-adv-x="580" 
d="M356 667q0 -26 -19 -45t-46 -19t-46 19t-19 45q0 27 19 46.5t46 19.5t46 -19.5t19 -46.5zM509 667q0 -26 -19 -45t-46 -19t-46 19t-19 45q0 27 19 46.5t46 19.5t46 -19.5t19 -46.5zM544 516q-10 -121 -12.5 -240.5t5.5 -240.5q-1 -8 -6 -16q-5 -7 -14.5 -13.5t-26.5 -8.5
q-15 -2 -32 -4t-32 -0.5t-27 6.5t-18 16q-22 -5 -44 -9.5t-45 -6.5q-67 -6 -117.5 18t-82.5 67t-45 99t-5.5 114t36 112t79.5 93q55 38 121.5 47t133.5 -9q8 6 26 5q14 -1 32.5 -2t35 -4t27.5 -8.5t11 -14.5zM388 395q-45 18 -80 11t-59 -29.5t-37 -55t-15 -65t7.5 -60.5
t31.5 -41.5t55.5 -7t80.5 42.5q2 26 3 51.5t3 51.5q2 27 4 53t6 49z" />
    <glyph glyph-name="aring" unicode="&#xe5;" horiz-adv-x="580" 
d="M390 586q-20 0 -38 8t-31.5 21.5t-21 31.5t-7.5 38q0 41 28.5 69.5t69.5 28.5q42 0 70.5 -28.5t28.5 -69.5q0 -20 -7.5 -38t-21 -31.5t-31.5 -21.5t-39 -8zM390 715q-12 0 -21 -8.5t-9 -21.5t9 -22t21 -9q13 0 22 9t9 22t-9 21.5t-22 8.5zM544 516q-10 -121 -12.5 -240.5
t5.5 -240.5q-1 -8 -6 -16q-5 -7 -14.5 -13.5t-26.5 -8.5q-15 -2 -32 -4t-32 -0.5t-27 6.5t-18 16q-22 -5 -44 -9.5t-45 -6.5q-67 -6 -117.5 18t-82.5 67t-45 99t-5.5 114t36 112t79.5 93q55 38 121.5 47t133.5 -9q8 6 26 5q14 -1 32.5 -2t35 -4t27.5 -8.5t11 -14.5zM388 395
q-45 18 -80 11t-59 -29.5t-37 -55t-15 -65t7.5 -60.5t31.5 -41.5t55.5 -7t80.5 42.5q2 26 3 51.5t3 51.5q2 27 4 53t6 49z" />
    <glyph glyph-name="ae" unicode="&#xe6;" horiz-adv-x="874" 
d="M546 533q61 18 116.5 8.5t96 -41t62.5 -84t15 -119.5q-2 -13 -7 -22t-16 -11q-5 -2 -21 -3t-38.5 -1t-49.5 0.5t-54 1.5q-37 2 -69 3t-52 3q-1 -24 3.5 -47t15.5 -41.5t29 -30.5t45 -14q21 -2 42 8t38 34q13 20 33 24t39 -3.5t32 -24.5t13 -39q0 -27 -14.5 -49.5
t-36.5 -40t-48.5 -29.5t-50.5 -16q-30 -6 -61 -4.5t-60 9.5q-17 5 -28 10q-5 -6 -13.5 -10.5t-23.5 -6.5t-32 -4t-32 -0.5t-27 6.5t-18 16q-22 -5 -44 -9.5t-45 -6.5q-67 -6 -117.5 18t-82.5 67t-45 99t-5.5 114t36 112t79.5 93q55 38 121.5 47t133.5 -9q8 6 26 5
q12 -1 26 -2t28 -2.5t26 -5t19 -8.5zM381 395q-45 18 -80 11t-59 -29.5t-37 -55t-15 -65t7.5 -60.5t31.5 -41.5t55.5 -7t80.5 42.5q3 51 5.5 102t10.5 103zM549 366q71 0 143 3q-5 33 -23.5 47.5t-41 12.5t-44.5 -18.5t-34 -44.5z" />
    <glyph glyph-name="ccedilla" unicode="&#xe7;" horiz-adv-x="535" 
d="M404 236q16 -3 33.5 -6.5t31.5 -9.5t22 -16.5t6 -26.5q-5 -41 -24 -73.5t-47 -56.5q-35 -32 -77.5 -44.5t-85.5 -8.5q-2 -5 -3 -9.5t-2 -9.5q32 5 55 -8.5t25 -40.5q2 -22 -9 -40t-29 -26q-13 -7 -30 -9t-34 6q-11 4 -17 14.5t-1 24.5q3 10 11 11.5t16 -0.5q9 -4 17 -2
t12.5 7t4.5 10.5t-7 9.5q-9 3 -28 0.5t-31 -1.5q-6 0 -9.5 6t-5 14t-1 16t2.5 12q2 6 3.5 12.5t3.5 13.5q-24 8 -44.5 21t-39.5 30q-42 38 -65 91t-25.5 110t15 113.5t55.5 102.5q31 38 76 61.5t94 28t96 -12t82 -58.5q11 -14 22.5 -36t11.5 -43q0 -14 -7.5 -25.5t-19.5 -20
t-26 -14t-26 -7.5q-26 -3 -36.5 0t-12.5 15q-4 27 -16 43t-28 21.5t-34 1.5t-34 -16q-25 -17 -39.5 -47.5t-17.5 -66t4.5 -70t26.5 -58.5q18 -23 40 -27.5t42.5 4.5t37 28.5t25.5 43.5q5 14 16 17t24 1z" />
    <glyph glyph-name="egrave" unicode="&#xe8;" horiz-adv-x="533" 
d="M192 786q26 -18 48.5 -33.5t44.5 -30.5t44 -31t47 -35l4 -8q1 -4 1 -9.5t-5 -13.5q-9 -15 -21 -28t-28 -6q-26 18 -47 34.5t-41.5 33t-41 34t-44.5 35.5q-2 1 -3 4q-1 2 -1 6t4 10t9.5 13.5t11 14t10.5 10t8 0.5zM205 533q61 18 116.5 8.5t96 -41t62.5 -84t15 -119.5
q-2 -13 -7 -22t-16 -11q-5 -2 -21 -3t-38.5 -1t-49.5 0.5t-54 1.5q-37 2 -69 3t-52 3q-1 -24 3.5 -47t15.5 -41.5t29 -30.5t45 -14q21 -2 42 8t38 34q13 20 33 24t39 -3.5t32 -24.5t13 -39q0 -27 -14.5 -49.5t-36.5 -40t-48.5 -29.5t-50.5 -16q-30 -6 -61 -4.5t-60 9.5
q-64 20 -106 70.5t-59 112.5q-16 58 -9 123t40 119q23 35 55 62.5t77 41.5zM208 366q71 0 143 3q-5 33 -23.5 47.5t-41 12.5t-44.5 -18.5t-34 -44.5z" />
    <glyph glyph-name="eacute" unicode="&#xe9;" horiz-adv-x="533" 
d="M339 776q4 3 9 -0.5t10.5 -10t11 -14t9.5 -13.5q5 -10 3 -16q-1 -3 -3 -4q-24 -18 -44.5 -35t-41 -33.5t-41.5 -33.5t-46 -35q-16 -7 -28 6t-22 28q-9 14 -5 23q1 4 5 8q25 19 47 35t44 31t44 30.5t48 33.5zM205 533q61 18 116.5 8.5t96 -41t62.5 -84t15 -119.5
q-2 -13 -7 -22t-16 -11q-5 -2 -21 -3t-38.5 -1t-49.5 0.5t-54 1.5q-37 2 -69 3t-52 3q-1 -24 3.5 -47t15.5 -41.5t29 -30.5t45 -14q21 -2 42 8t38 34q13 20 33 24t39 -3.5t32 -24.5t13 -39q0 -27 -14.5 -49.5t-36.5 -40t-48.5 -29.5t-50.5 -16q-30 -6 -61 -4.5t-60 9.5
q-64 20 -106 70.5t-59 112.5q-16 58 -9 123t40 119q23 35 55 62.5t77 41.5zM208 366q71 0 143 3q-5 33 -23.5 47.5t-41 12.5t-44.5 -18.5t-34 -44.5z" />
    <glyph glyph-name="ecircumflex" unicode="&#xea;" horiz-adv-x="533" 
d="M412 617q0 -4 -1 -8q-2 -4 -4.5 -8.5t-10.5 -9.5q-15 -10 -31 -18t-25 1q-2 3 -6 12l-10 22.5t-12.5 30t-13.5 32.5q-12 -17 -25.5 -34.5t-24.5 -31.5q-13 -17 -25 -32q-8 -7 -25.5 -3t-34.5 13t-27.5 21t-5.5 22l100 161q26 1 48 1q18 0 34 -1.5t18 -3.5zM205 533
q61 18 116.5 8.5t96 -41t62.5 -84t15 -119.5q-2 -13 -7 -22t-16 -11q-5 -2 -21 -3t-38.5 -1t-49.5 0.5t-54 1.5q-37 2 -69 3t-52 3q-1 -24 3.5 -47t15.5 -41.5t29 -30.5t45 -14q21 -2 42 8t38 34q13 20 33 24t39 -3.5t32 -24.5t13 -39q0 -27 -14.5 -49.5t-36.5 -40
t-48.5 -29.5t-50.5 -16q-30 -6 -61 -4.5t-60 9.5q-64 20 -106 70.5t-59 112.5q-16 58 -9 123t40 119q23 35 55 62.5t77 41.5zM208 366q71 0 143 3q-5 33 -23.5 47.5t-41 12.5t-44.5 -18.5t-34 -44.5z" />
    <glyph glyph-name="edieresis" unicode="&#xeb;" horiz-adv-x="533" 
d="M255 639q0 -26 -19 -45t-46 -19t-46 19t-19 45q0 27 19 46.5t46 19.5t46 -19.5t19 -46.5zM408 639q0 -26 -19 -45t-46 -19t-46 19t-19 45q0 27 19 46.5t46 19.5t46 -19.5t19 -46.5zM205 533q61 18 116.5 8.5t96 -41t62.5 -84t15 -119.5q-2 -13 -7 -22t-16 -11
q-5 -2 -21 -3t-38.5 -1t-49.5 0.5t-54 1.5q-37 2 -69 3t-52 3q-1 -24 3.5 -47t15.5 -41.5t29 -30.5t45 -14q21 -2 42 8t38 34q13 20 33 24t39 -3.5t32 -24.5t13 -39q0 -27 -14.5 -49.5t-36.5 -40t-48.5 -29.5t-50.5 -16q-30 -6 -61 -4.5t-60 9.5q-64 20 -106 70.5t-59 112.5
q-16 58 -9 123t40 119q23 35 55 62.5t77 41.5zM208 366q71 0 143 3q-5 33 -23.5 47.5t-41 12.5t-44.5 -18.5t-34 -44.5z" />
    <glyph glyph-name="igrave" unicode="&#xec;" horiz-adv-x="239" 
d="M198 504q-1 -53 -1.5 -114t-0.5 -123.5t0.5 -123t2.5 -112.5q-2 -7 -7 -14q-5 -6 -14.5 -12t-26.5 -8t-35.5 -2.5t-34.5 1.5t-27.5 9t-14.5 21q-2 7 -2.5 29t0 53t2 68.5t4.5 75.5q2 38 4.5 82t4.5 82l6 88q-1 6 3 10q3 4 9.5 6.5t20.5 2.5h32t34.5 -1.5t28.5 -5.5
t12 -12zM46 747q26 -18 48.5 -33.5t44.5 -30.5t44 -31t47 -35l4 -8q1 -4 1 -9.5t-5 -13.5q-9 -15 -21 -28t-28 -6q-26 18 -47 34.5t-41.5 33t-41 34t-44.5 35.5q-2 1 -3 4q-1 2 -1 6t4 10t9.5 13.5t11 14t10.5 10t8 0.5z" />
    <glyph glyph-name="iacute" unicode="&#xed;" horiz-adv-x="239" 
d="M198 504q-1 -53 -1.5 -114t-0.5 -123.5t0.5 -123t2.5 -112.5q-2 -7 -7 -14q-5 -6 -14.5 -12t-26.5 -8t-35.5 -2.5t-34.5 1.5t-27.5 9t-14.5 21q-2 7 -2.5 29t0 53t2 68.5t4.5 75.5q2 38 4.5 82t4.5 82l6 88q-1 6 3 10q3 4 9.5 6.5t20.5 2.5h32t34.5 -1.5t28.5 -5.5
t12 -12zM193 747q4 3 9 -0.5t10.5 -10t11 -14t9.5 -13.5q5 -10 3 -16q-1 -3 -3 -4q-24 -18 -44.5 -35t-41 -33.5t-41.5 -33.5t-46 -35q-16 -7 -28 6t-22 28q-9 14 -5 23q1 4 5 8q25 19 47 35t44 31t44 30.5t48 33.5z" />
    <glyph glyph-name="icircumflex" unicode="&#xee;" horiz-adv-x="239" 
d="M198 504q-1 -53 -1.5 -114t-0.5 -123.5t0.5 -123t2.5 -112.5q-2 -7 -7 -14q-5 -6 -14.5 -12t-26.5 -8t-35.5 -2.5t-34.5 1.5t-27.5 9t-14.5 21q-2 7 -2.5 29t0 53t2 68.5t4.5 75.5q2 38 4.5 82t4.5 82l6 88q-1 6 3 10q3 4 9.5 6.5t20.5 2.5h32t34.5 -1.5t28.5 -5.5
t12 -12zM266 615q0 -4 -1 -8q-2 -4 -4.5 -8.5t-10.5 -9.5q-15 -10 -31 -18t-25 1q-2 3 -6 12l-10 22.5t-12.5 30t-13.5 32.5q-12 -17 -25.5 -34.5t-24.5 -31.5q-13 -17 -25 -32q-8 -7 -25.5 -3t-34.5 13t-27.5 21t-5.5 22l100 161q26 1 48 1q18 0 34 -1.5t18 -3.5z" />
    <glyph glyph-name="idieresis" unicode="&#xef;" horiz-adv-x="239" 
d="M198 504q-1 -53 -1.5 -114t-0.5 -123.5t0.5 -123t2.5 -112.5q-2 -7 -7 -14q-5 -6 -14.5 -12t-26.5 -8t-35.5 -2.5t-34.5 1.5t-27.5 9t-14.5 21q-2 7 -2.5 29t0 53t2 68.5t4.5 75.5q2 38 4.5 82t4.5 82l6 88q-1 6 3 10q3 4 9.5 6.5t20.5 2.5h32t34.5 -1.5t28.5 -5.5
t12 -12zM108 639q0 -26 -19 -45t-46 -19t-46 19t-19 45q0 27 19 46.5t46 19.5t46 -19.5t19 -46.5zM261 639q0 -26 -19 -45t-46 -19t-46 19t-19 45q0 27 19 46.5t46 19.5t46 -19.5t19 -46.5z" />
    <glyph glyph-name="eth" unicode="&#xf0;" horiz-adv-x="561" 
d="M452 595q25 -25 41.5 -63.5t24 -84.5t7 -95.5t-8.5 -96.5t-24 -88.5t-39 -70.5q-28 -36 -65.5 -60t-80 -34t-87 -4.5t-85.5 28.5q-29 16 -51 39t-35 50t-17.5 57.5t0.5 62.5q8 54 41.5 95t80.5 68t102 39.5t106 10.5l-5 12q-6 16 -14.5 30.5t-20.5 28.5
q-12 -9 -25.5 -20.5t-39.5 -35.5q-7 -10 -16.5 -10.5t-19.5 7.5q-8 6 -19.5 14.5t-20.5 17t-14 16.5t-1 13q14 17 28.5 33.5t31.5 30.5q-28 15 -58 20t-62 12q-11 2 -25 7.5t-17 17.5q-2 10 -3 24.5t1 29t7 28t15 21.5q8 6 20 10t28 3q52 -3 106 -20t120 -55q19 11 39.5 21
t40.5 19h4h4.5t4.5 -1q5 -2 11.5 -7.5t11.5 -17.5q6 -12 11 -25t7.5 -25t1 -22t-9.5 -15q-3 -2 -11.5 -5.5t-20.5 -9.5zM372 315q-19 -1 -49.5 -6.5t-58.5 -18.5t-47 -33t-15 -50q2 -15 11 -26.5t22 -18.5t29 -7t32 9q19 10 33 28.5t23.5 40t14 43.5t5.5 39z" />
    <glyph glyph-name="ntilde" unicode="&#xf1;" horiz-adv-x="601" 
d="M154 634q7 34 21.5 67t40.5 53q23 17 50.5 16t46.5 -29q8 -13 12 -26t12 -27q7 -13 16.5 -6t11.5 32q0 12 9.5 17.5t19.5 5.5q26 0 41 -8t14 -33q-1 -30 -12 -56.5t-33 -39.5q-24 -14 -53.5 -12t-46.5 21q-11 12 -19.5 25.5t-19.5 24.5q-7 7 -12.5 5.5t-10 -7.5
t-7.5 -15.5t-6 -18.5q-2 -6 -5 -10t-6 -6q-5 -3 -16 -2.5t-22 4.5t-19.5 10.5t-6.5 14.5zM186 507q38 16 84.5 23.5t92.5 2t86.5 -26.5t66.5 -62q22 -35 33 -86.5t11 -126.5l-2 -163q0 -8 -1 -19t-6 -22t-15 -19.5t-27 -10.5q-27 -4 -57 -2.5t-46 22.5q-9 12 -12.5 31t-4 41
t1 43.5t3.5 37.5q4 35 7 68t-2 64q-6 33 -23 56.5t-39.5 34t-47 8t-46 -20t-36.5 -51.5t-18 -85l3 -210q-2 -9 -7 -17q-5 -7 -14.5 -12.5t-26.5 -7.5q-18 -2 -36.5 -2.5t-35 3t-27.5 12t-14 24.5q-2 6 -2 43.5t1.5 91t3.5 114.5t4 114.5t4 91t2 44.5q-1 6 3 11q3 5 10 8.5
t21 4.5q13 1 31.5 1.5t35.5 -0.5t29 -5t12 -13v-33z" />
    <glyph glyph-name="ograve" unicode="&#xf2;" horiz-adv-x="548" 
d="M200 763q26 -18 48.5 -33.5t44.5 -30.5t44 -31t47 -35l4 -8q1 -4 1 -9.5t-5 -13.5q-9 -15 -21 -28t-28 -6q-26 18 -47 34.5t-41.5 33t-41 34t-44.5 35.5q-2 1 -3 4q-1 2 -1 6t4 10t9.5 13.5t11 14t10.5 10t8 0.5zM273 -7q-52 0 -97.5 22t-79.5 59.5t-54 87.5t-20 107
t20 107t54 87.5t79.5 59t97.5 21.5t97.5 -21.5t79.5 -59t54 -87.5t20 -107t-20 -107t-54 -87.5t-79.5 -59.5t-97.5 -22zM273 396q-23 0 -42.5 -10t-33.5 -27.5t-22.5 -40.5t-8.5 -49t8.5 -49.5t22.5 -40.5t33.5 -27t42.5 -10q22 0 42 10t34.5 27t23 40.5t8.5 49.5t-8.5 49
t-23 40.5t-34.5 27.5t-42 10z" />
    <glyph glyph-name="oacute" unicode="&#xf3;" horiz-adv-x="548" 
d="M347 783q4 3 9 -0.5t10.5 -10t11 -14t9.5 -13.5q5 -10 3 -16q-1 -3 -3 -4q-24 -18 -44.5 -35t-41 -33.5t-41.5 -33.5t-46 -35q-16 -7 -28 6t-22 28q-9 14 -5 23q1 4 5 8q25 19 47 35t44 31t44 30.5t48 33.5zM273 -7q-52 0 -97.5 22t-79.5 59.5t-54 87.5t-20 107t20 107
t54 87.5t79.5 59t97.5 21.5t97.5 -21.5t79.5 -59t54 -87.5t20 -107t-20 -107t-54 -87.5t-79.5 -59.5t-97.5 -22zM273 396q-23 0 -42.5 -10t-33.5 -27.5t-22.5 -40.5t-8.5 -49t8.5 -49.5t22.5 -40.5t33.5 -27t42.5 -10q22 0 42 10t34.5 27t23 40.5t8.5 49.5t-8.5 49t-23 40.5
t-34.5 27.5t-42 10z" />
    <glyph glyph-name="ocircumflex" unicode="&#xf4;" horiz-adv-x="548" 
d="M420 620q0 -4 -1 -8q-2 -4 -4.5 -8.5t-10.5 -9.5q-15 -10 -31 -18t-25 1q-2 3 -6 12l-10 22.5t-12.5 30t-13.5 32.5q-12 -17 -25.5 -34.5t-24.5 -31.5q-13 -17 -25 -32q-8 -7 -25.5 -3t-34.5 13t-27.5 21t-5.5 22l100 161q26 1 48 1q18 0 34 -1.5t18 -3.5zM273 -7
q-52 0 -97.5 22t-79.5 59.5t-54 87.5t-20 107t20 107t54 87.5t79.5 59t97.5 21.5t97.5 -21.5t79.5 -59t54 -87.5t20 -107t-20 -107t-54 -87.5t-79.5 -59.5t-97.5 -22zM273 396q-23 0 -42.5 -10t-33.5 -27.5t-22.5 -40.5t-8.5 -49t8.5 -49.5t22.5 -40.5t33.5 -27t42.5 -10
q22 0 42 10t34.5 27t23 40.5t8.5 49.5t-8.5 49t-23 40.5t-34.5 27.5t-42 10z" />
    <glyph glyph-name="otilde" unicode="&#xf5;" horiz-adv-x="548" 
d="M128 607q7 34 21.5 67t40.5 53q23 17 50.5 16t46.5 -29q8 -13 12 -26t12 -27q7 -13 16.5 -6t11.5 32q0 12 9.5 17.5t19.5 5.5q26 0 41 -8t14 -33q-1 -30 -12 -56.5t-33 -39.5q-24 -14 -53.5 -12t-46.5 21q-11 12 -19.5 25.5t-19.5 24.5q-7 7 -12.5 5.5t-10 -7.5
t-7.5 -15.5t-6 -18.5q-2 -6 -5 -10t-6 -6q-5 -3 -16 -2.5t-22 4.5t-19.5 10.5t-6.5 14.5zM273 -7q-52 0 -97.5 22t-79.5 59.5t-54 87.5t-20 107t20 107t54 87.5t79.5 59t97.5 21.5t97.5 -21.5t79.5 -59t54 -87.5t20 -107t-20 -107t-54 -87.5t-79.5 -59.5t-97.5 -22zM273 396
q-23 0 -42.5 -10t-33.5 -27.5t-22.5 -40.5t-8.5 -49t8.5 -49.5t22.5 -40.5t33.5 -27t42.5 -10q22 0 42 10t34.5 27t23 40.5t8.5 49.5t-8.5 49t-23 40.5t-34.5 27.5t-42 10z" />
    <glyph glyph-name="odieresis" unicode="&#xf6;" horiz-adv-x="548" 
d="M262 639q0 -26 -19 -45t-46 -19t-46 19t-19 45q0 27 19 46.5t46 19.5t46 -19.5t19 -46.5zM415 639q0 -26 -19 -45t-46 -19t-46 19t-19 45q0 27 19 46.5t46 19.5t46 -19.5t19 -46.5zM273 -7q-52 0 -97.5 22t-79.5 59.5t-54 87.5t-20 107t20 107t54 87.5t79.5 59t97.5 21.5
t97.5 -21.5t79.5 -59t54 -87.5t20 -107t-20 -107t-54 -87.5t-79.5 -59.5t-97.5 -22zM273 396q-23 0 -42.5 -10t-33.5 -27.5t-22.5 -40.5t-8.5 -49t8.5 -49.5t22.5 -40.5t33.5 -27t42.5 -10q22 0 42 10t34.5 27t23 40.5t8.5 49.5t-8.5 49t-23 40.5t-34.5 27.5t-42 10z" />
    <glyph glyph-name="divide" unicode="&#xf7;" horiz-adv-x="443" 
d="M43 371q171 5 343 0q6 -1 11 -6t8 -13.5t4 -24.5q1 -15 1 -31.5t-3 -30.5t-9 -23.5t-17 -12.5q-6 -1 -23 -0.5t-41 2t-53 3.5t-59 4q-29 2 -56.5 3.5t-49.5 3.5q-26 1 -48 2q-4 -1 -8 2q-3 2 -5.5 8.5t-3.5 18.5t-2 28t-1 31t3 25.5t9 10.5zM279 458q0 -22 -18.5 -37.5
t-44.5 -15.5t-44 15.5t-18 37.5q0 23 18 39.5t44 16.5t44.5 -16.5t18.5 -39.5zM279 153q0 -23 -18.5 -38.5t-44.5 -15.5t-44 15.5t-18 38.5t18 39t44 16t44.5 -16t18.5 -39z" />
    <glyph glyph-name="oslash" unicode="&#xf8;" horiz-adv-x="548" 
d="M273 -7q-52 0 -97.5 22t-79.5 59.5t-54 87.5t-20 107t20 107t54 87.5t79.5 59t97.5 21.5t97.5 -21.5t79.5 -59t54 -87.5t20 -107t-20 -107t-54 -87.5t-79.5 -59.5t-97.5 -22zM273 396q-23 0 -42.5 -10t-33.5 -27.5t-22.5 -40.5t-8.5 -49q0 -31 10.5 -56.5t29.5 -43.5
q8 27 18 57.5l20 61t19.5 58.5t16.5 49q-2 0 -3.5 0.5t-3.5 0.5zM381 269q0 30 -11 56.5t-31 43.5l-67 -227h1q22 0 42 10t34.5 27t23 40.5t8.5 49.5z" />
    <glyph glyph-name="ugrave" unicode="&#xf9;" horiz-adv-x="561" 
d="M206 786q26 -18 48.5 -33.5t44.5 -30.5t44 -31t47 -35l4 -8q1 -4 1 -9.5t-5 -13.5q-9 -15 -21 -28t-28 -6q-26 18 -47 34.5t-41.5 33t-41 34t-44.5 35.5q-2 1 -3 4q-1 2 -1 6t4 10t9.5 13.5t11 14t10.5 10t8 0.5zM529 521q-10 -122 -13 -243t0 -244q-1 -9 -6 -16
q-5 -6 -15 -12.5t-27 -8.5q-16 -2 -33.5 -3t-33 1.5t-27.5 9.5t-16 21q-77 -39 -136.5 -29t-100.5 51t-62.5 103t-22.5 128q-1 58 4 117t19 118q3 15 13 25t27 9q14 -1 32.5 -3t34.5 -6.5t27 -12.5t10 -22q-8 -44 -12.5 -89t-4.5 -94q0 -66 15.5 -107.5t38 -57.5t47.5 -4.5
t45 51.5q19 38 27.5 77.5t12 80.5t4.5 82.5t6 83.5q1 7 6 12q9 11 35 10q13 -1 31.5 -2t35 -4t28 -8t11.5 -14z" />
    <glyph glyph-name="uacute" unicode="&#xfa;" horiz-adv-x="561" 
d="M353 785q4 3 9 -0.5t10.5 -10t11 -14t9.5 -13.5q5 -10 3 -16q-1 -3 -3 -4q-24 -18 -44.5 -35t-41 -33.5t-41.5 -33.5t-46 -35q-16 -7 -28 6t-22 28q-9 14 -5 23q1 4 5 8q25 19 47 35t44 31t44 30.5t48 33.5zM529 521q-10 -122 -13 -243t0 -244q-1 -9 -6 -16
q-5 -6 -15 -12.5t-27 -8.5q-16 -2 -33.5 -3t-33 1.5t-27.5 9.5t-16 21q-77 -39 -136.5 -29t-100.5 51t-62.5 103t-22.5 128q-1 58 4 117t19 118q3 15 13 25t27 9q14 -1 32.5 -3t34.5 -6.5t27 -12.5t10 -22q-8 -44 -12.5 -89t-4.5 -94q0 -66 15.5 -107.5t38 -57.5t47.5 -4.5
t45 51.5q19 38 27.5 77.5t12 80.5t4.5 82.5t6 83.5q1 7 6 12q9 11 35 10q13 -1 31.5 -2t35 -4t28 -8t11.5 -14z" />
    <glyph glyph-name="ucircumflex" unicode="&#xfb;" horiz-adv-x="561" 
d="M426 629q0 -4 -1 -8q-2 -4 -4.5 -8.5t-10.5 -9.5q-15 -10 -31 -18t-25 1q-2 3 -6 12l-10 22.5t-12.5 30t-13.5 32.5q-12 -17 -25.5 -34.5t-24.5 -31.5q-13 -17 -25 -32q-8 -7 -25.5 -3t-34.5 13t-27.5 21t-5.5 22l100 161q26 1 48 1q18 0 34 -1.5t18 -3.5zM529 521
q-10 -122 -13 -243t0 -244q-1 -9 -6 -16q-5 -6 -15 -12.5t-27 -8.5q-16 -2 -33.5 -3t-33 1.5t-27.5 9.5t-16 21q-77 -39 -136.5 -29t-100.5 51t-62.5 103t-22.5 128q-1 58 4 117t19 118q3 15 13 25t27 9q14 -1 32.5 -3t34.5 -6.5t27 -12.5t10 -22q-8 -44 -12.5 -89t-4.5 -94
q0 -66 15.5 -107.5t38 -57.5t47.5 -4.5t45 51.5q19 38 27.5 77.5t12 80.5t4.5 82.5t6 83.5q1 7 6 12q9 11 35 10q13 -1 31.5 -2t35 -4t28 -8t11.5 -14z" />
    <glyph glyph-name="udieresis" unicode="&#xfc;" horiz-adv-x="561" 
d="M269 648q0 -26 -19 -45t-46 -19t-46 19t-19 45q0 27 19 46.5t46 19.5t46 -19.5t19 -46.5zM422 648q0 -26 -19 -45t-46 -19t-46 19t-19 45q0 27 19 46.5t46 19.5t46 -19.5t19 -46.5zM529 521q-10 -122 -13 -243t0 -244q-1 -9 -6 -16q-5 -6 -15 -12.5t-27 -8.5
q-16 -2 -33.5 -3t-33 1.5t-27.5 9.5t-16 21q-77 -39 -136.5 -29t-100.5 51t-62.5 103t-22.5 128q-1 58 4 117t19 118q3 15 13 25t27 9q14 -1 32.5 -3t34.5 -6.5t27 -12.5t10 -22q-8 -44 -12.5 -89t-4.5 -94q0 -66 15.5 -107.5t38 -57.5t47.5 -4.5t45 51.5q19 38 27.5 77.5
t12 80.5t4.5 82.5t6 83.5q1 7 6 12q9 11 35 10q13 -1 31.5 -2t35 -4t28 -8t11.5 -14z" />
    <glyph glyph-name="yacute" unicode="&#xfd;" horiz-adv-x="563" 
d="M370 777q4 3 9 -0.5t10.5 -10t11 -14t9.5 -13.5q5 -10 3 -16q-1 -3 -3 -4q-24 -18 -44.5 -35t-41 -33.5t-41.5 -33.5t-46 -35q-16 -7 -28 6t-22 28q-9 14 -5 23q1 4 5 8q25 19 47 35t44 31t44 30.5t48 33.5zM418 553q14 1 32.5 1.5t35 -2.5t28.5 -11t13 -25
q1 -126 1.5 -216t0 -151.5t-1 -100t-2.5 -61.5t-4.5 -36t-5.5 -24q-10 -32 -27 -61t-41 -52t-55.5 -39.5t-69.5 -23.5q-49 -8 -104.5 -2.5t-104.5 33.5q-20 11 -25.5 36.5t0.5 50.5t22.5 42.5t40.5 13.5q22 -8 56.5 -15.5t68.5 -5t61.5 20.5t36.5 61q3 17 4 36.5t0.5 40
t-1 41.5t0.5 40q-35 -39 -78 -51t-86 -3q-59 13 -96.5 46t-57.5 78.5t-26 99.5t-1 109q2 26 5 51t6 49q3 8 9 14q5 5 14 9.5t23 3.5q13 -1 31.5 -1.5t35 -3.5t28 -9t11.5 -17q-2 -24 -5 -49t-5.5 -50.5t-3 -51t3.5 -50.5q5 -43 21 -65.5t37.5 -28.5t45 3t43.5 29t33.5 49
t15.5 64q1 31 1.5 56.5t1.5 43.5q1 21 1 38q-2 12 2 22q2 8 9 15t21 9z" />
    <glyph glyph-name="ydieresis" unicode="&#xff;" horiz-adv-x="563" 
d="M279 660q0 -26 -19 -45t-46 -19t-46 19t-19 45q0 27 19 46.5t46 19.5t46 -19.5t19 -46.5zM432 660q0 -26 -19 -45t-46 -19t-46 19t-19 45q0 27 19 46.5t46 19.5t46 -19.5t19 -46.5zM418 553q14 1 32.5 1.5t35 -2.5t28.5 -11t13 -25q1 -126 1.5 -216t0 -151.5t-1 -100
t-2.5 -61.5t-4.5 -36t-5.5 -24q-10 -32 -27 -61t-41 -52t-55.5 -39.5t-69.5 -23.5q-49 -8 -104.5 -2.5t-104.5 33.5q-20 11 -25.5 36.5t0.5 50.5t22.5 42.5t40.5 13.5q22 -8 56.5 -15.5t68.5 -5t61.5 20.5t36.5 61q3 17 4 36.5t0.5 40t-1 41.5t0.5 40q-35 -39 -78 -51
t-86 -3q-59 13 -96.5 46t-57.5 78.5t-26 99.5t-1 109q2 26 5 51t6 49q3 8 9 14q5 5 14 9.5t23 3.5q13 -1 31.5 -1.5t35 -3.5t28 -9t11.5 -17q-2 -24 -5 -49t-5.5 -50.5t-3 -51t3.5 -50.5q5 -43 21 -65.5t37.5 -28.5t45 3t43.5 29t33.5 49t15.5 64q1 31 1.5 56.5t1.5 43.5
q1 21 1 38q-2 12 2 22q2 8 9 15t21 9z" />
    <glyph glyph-name="Ydieresis" unicode="&#x178;" horiz-adv-x="563" 
d="M294 864q0 -26 -19 -45t-46 -19t-46 19t-19 45q0 27 19 46.5t46 19.5t46 -19.5t19 -46.5zM447 864q0 -26 -19 -45t-46 -19t-46 19t-19 45q0 27 19 46.5t46 19.5t46 -19.5t19 -46.5zM422 748h32.5t35.5 -3t29 -10t12 -22q-1 -90 -1.5 -144.5t-1.5 -86t-2 -48t-2 -29.5
q-6 -66 -21 -126t-45 -111.5t-76.5 -92.5t-115.5 -68q-15 -5 -41 -10t-53.5 -5.5t-52.5 6.5t-38 27q-9 14 -13.5 39t-2.5 49t12 40.5t28 13.5q28 -5 65 -3.5t72 13t63.5 34t39.5 60.5q-67 -23 -119 -18.5t-89.5 31.5t-62 72t-37 102.5t-12.5 123t10 133.5q2 16 13 27t28 8
q13 -1 32 -2t35.5 -4.5t28 -10t11.5 -16.5q-1 -8 -1.5 -14.5t-1.5 -14.5q-2 -24 -4 -62t1.5 -77t16 -74t38.5 -54q20 -14 43.5 -16t45.5 10t40.5 39t27.5 71q5 23 5.5 48t-0.5 49.5t-3 47t-2 40.5q-1 11 3 19q3 7 9.5 12.5t20.5 6.5z" />
    </font>
</defs>
</svg>
